<svg viewBox="0 0 123 123" fill="none" xmlns="http://www.w3.org/2000/svg">
<path fill-rule="evenodd" clip-rule="evenodd" d="M16.5008 43.4071C14.9997 44.9081 14.9997 47.3419 16.5008 48.8429L37.6414 69.9836C39.1425 71.4846 41.5762 71.4846 43.0773 69.9836C44.5784 68.4825 44.5784 66.0488 43.0773 64.5477L21.9367 43.4071C20.4356 41.906 18.0019 41.906 16.5008 43.4071ZM76.0789 49.1727C74.5779 50.6738 74.5779 53.1075 76.0789 54.6086L101.063 79.5929C102.564 81.094 104.998 81.094 106.499 79.5929C108 78.0919 108 75.6581 106.499 74.1571L81.5148 49.1727C80.0137 47.6716 77.58 47.6716 76.0789 49.1727ZM69.9836 49.1727C68.4825 47.6716 66.0488 47.6716 64.5477 49.1727L49.1727 64.5477C47.6716 66.0488 47.6716 68.4825 49.1727 69.9836C50.6738 71.4846 53.1075 71.4846 54.6086 69.9836L69.9836 54.6086C71.4846 53.1075 71.4846 50.6738 69.9836 49.1727Z" fill="#004B7B"/>
<path fill-rule="evenodd" clip-rule="evenodd" d="M13.4531 38.4375C14.5145 38.4375 15.375 39.298 15.375 40.3594C15.375 41.4208 14.5145 42.2812 13.4531 42.2812C12.3917 42.2812 11.5312 41.4208 11.5312 40.3594C11.5312 39.298 12.3917 38.4375 13.4531 38.4375ZM23.0625 40.3594C23.0625 35.0523 18.7602 30.75 13.4531 30.75C8.14601 30.75 3.84375 35.0523 3.84375 40.3594C3.84375 45.6665 8.14601 49.9688 13.4531 49.9688C18.7602 49.9688 23.0625 45.6665 23.0625 40.3594Z" fill="#004B7B"/>
<path fill-rule="evenodd" clip-rule="evenodd" d="M46.125 71.1094C47.1864 71.1094 48.0469 71.9698 48.0469 73.0312C48.0469 74.0927 47.1864 74.9531 46.125 74.9531C45.0636 74.9531 44.2031 74.0927 44.2031 73.0312C44.2031 71.9698 45.0636 71.1094 46.125 71.1094ZM55.7344 73.0312C55.7344 67.7241 51.4321 63.4219 46.125 63.4219C40.8179 63.4219 36.5156 67.7241 36.5156 73.0312C36.5156 78.3384 40.8179 82.6406 46.125 82.6406C51.4321 82.6406 55.7344 78.3384 55.7344 73.0312Z" fill="#004B7B"/>
<path fill-rule="evenodd" clip-rule="evenodd" d="M73.0312 44.2031C74.0927 44.2031 74.9531 45.0636 74.9531 46.125C74.9531 47.1864 74.0927 48.0469 73.0312 48.0469C71.9698 48.0469 71.1094 47.1864 71.1094 46.125C71.1094 45.0636 71.9698 44.2031 73.0312 44.2031ZM82.6406 46.125C82.6406 40.8179 78.3384 36.5156 73.0312 36.5156C67.7241 36.5156 63.4219 40.8179 63.4219 46.125C63.4219 51.4321 67.7241 55.7344 73.0312 55.7344C78.3384 55.7344 82.6406 51.4321 82.6406 46.125Z" fill="#004B7B"/>
<path fill-rule="evenodd" clip-rule="evenodd" d="M109.547 80.7188C110.608 80.7188 111.469 81.5792 111.469 82.6406C111.469 83.702 110.608 84.5625 109.547 84.5625C108.485 84.5625 107.625 83.702 107.625 82.6406C107.625 81.5792 108.485 80.7188 109.547 80.7188ZM119.156 82.6406C119.156 77.3335 114.854 73.0312 109.547 73.0312C104.24 73.0312 99.9375 77.3335 99.9375 82.6406C99.9375 87.9477 104.24 92.25 109.547 92.25C114.854 92.25 119.156 87.9477 119.156 82.6406Z" fill="#004B7B"/>
</svg>
