<svg viewBox="0 0 123 123" fill="none" xmlns="http://www.w3.org/2000/svg">
<path d="M79.1233 61.0179C74.6821 61.0179 70.3878 59.035 67.0267 55.4362C63.7585 51.926 61.7625 47.2451 61.4104 42.2595C61.0346 36.9414 62.6568 32.0509 65.9769 28.4867C69.297 24.9225 73.9391 23 79.1233 23C84.2709 23 88.9259 24.9571 92.2352 28.5126C95.5769 32.1027 97.2035 36.9846 96.8276 42.2574C96.4669 47.2494 94.4731 51.9282 91.2113 55.4341C87.8588 59.035 83.5667 61.0179 79.1233 61.0179ZM107.6 99.0359H50.6488C49.7331 99.0408 48.8285 98.8356 48.0047 98.436C47.1808 98.0364 46.4596 97.4531 45.8965 96.731C45.2992 95.9483 44.8868 95.0405 44.69 94.0758C44.4933 93.111 44.5173 92.1143 44.7603 91.1601C46.5791 83.8568 51.0851 77.7998 57.7901 73.6459C63.7412 69.9608 71.3167 67.9303 79.1233 67.9303C87.0833 67.9303 94.4601 69.8744 100.446 73.5574C107.166 77.6897 111.678 83.7812 113.489 91.1731C113.729 92.1279 113.75 93.1247 113.551 94.0889C113.352 95.0532 112.938 95.96 112.339 96.7419C111.777 97.4606 111.057 98.041 110.236 98.4386C109.414 98.8363 108.513 99.0406 107.6 99.0359Z" fill="#004B7B"/>
<path fill-rule="evenodd" clip-rule="evenodd" d="M49.2986 34.6594C46.5056 31.6546 42.6174 30 38.2972 30C33.977 30 30.0585 31.646 27.2806 34.6334C24.4725 37.6511 23.0857 41.7661 23.3924 46.216C24.0124 54.9018 30.6958 61.9696 38.2972 61.9696C45.8857 61.9696 52.5669 54.9039 53.1868 46.2203C53.5109 41.8072 52.1284 37.7008 49.2986 34.6594ZM52.4805 68.7632C48.6809 66.9055 43.7493 65.9766 38.2994 65.9766C31.9357 65.9766 25.7556 67.6356 20.8954 70.6468C15.3849 74.0663 11.6782 79.0453 10.1812 85.0569C9.96214 85.9216 9.94142 86.8246 10.1206 87.6984C10.2998 88.5722 10.6742 89.3942 11.2159 90.1029C11.7299 90.7628 12.3884 91.2959 13.1407 91.6614C13.893 92.0269 14.7192 92.215 15.5556 92.2112H39.5328C39.9375 92.2111 40.3293 92.069 40.64 91.8097C40.9507 91.5503 41.1604 91.1902 41.2328 90.792C41.2566 90.6559 41.2868 90.5198 41.3214 90.3859C43.1531 83.0285 47.4453 76.8118 53.7874 72.2798C54.0206 72.1117 54.2082 71.888 54.3332 71.629C54.4582 71.3701 54.5166 71.084 54.503 70.7968C54.4895 70.5095 54.4045 70.2302 54.2558 69.9841C54.1071 69.738 53.8993 69.533 53.6513 69.3875C53.3121 69.1887 52.9233 68.9792 52.4805 68.7632ZM50.3789 71.0984C47.1982 69.728 43.0484 68.9766 38.2994 68.9766C32.4296 68.9766 26.8097 70.5119 22.4762 73.1965C17.5937 76.2266 14.3904 80.5689 13.0923 85.7818L13.0893 85.7937C12.9813 86.2199 12.9711 86.6651 13.0594 87.0958C13.1468 87.522 13.3284 87.9231 13.5909 88.2699C13.8217 88.563 14.116 88.7999 14.4516 88.963C14.7913 89.128 15.1643 89.2129 15.5419 89.2112L15.5556 89.2112L38.5254 89.2112C40.423 81.9955 44.5025 75.8068 50.3789 71.0984ZM26.3851 46.0062C26.9202 53.4772 32.6052 58.9696 38.2972 58.9696C43.9759 58.9696 49.661 53.479 50.1945 46.0066L50.1949 46.0006C50.4622 42.36 49.3241 39.0909 47.1023 36.7029L47.1013 36.7019C44.9049 34.339 41.8274 33 38.2972 33C34.7536 33 31.6503 34.3397 29.4776 36.6763L29.4768 36.6771C27.2817 39.036 26.1315 42.3143 26.3851 46.0062Z" fill="#004B7B"/>
</svg>
