<svg viewBox="0 0 123 123" fill="none" xmlns="http://www.w3.org/2000/svg">
<g clip-path="url(#clip0_539_4679)">
<path d="M47.0259 44.5079L62.9818 51.1016C58.6256 57.3658 54.3415 63.5221 50.0537 69.691C52.1472 71.4676 54.2281 73.2263 56.2999 74.994C58.9227 77.2333 61.549 79.4672 64.1447 81.7389C64.3985 81.9603 64.6217 82.4589 64.5569 82.7685C63.1402 89.3946 61.6768 96.0117 60.2277 102.631C60.1841 102.751 60.1305 102.868 60.0675 102.98C59.3475 102.382 58.6688 101.824 57.9974 101.25C49.564 94.0388 41.0515 86.9141 33.1743 79.082C28.1179 74.0562 23.4845 68.6793 20.0914 62.3412C15.5012 53.7675 14.5525 44.9219 18.3705 35.8333C21.2218 29.0488 25.8768 23.8664 32.9151 21.3373C41.0947 18.3977 48.3076 20.4084 54.5377 26.3037C56.0497 27.7437 56.0317 27.7617 55.0453 29.5924C52.5252 34.263 50.0051 38.933 47.485 43.6024C47.3284 43.8904 47.1897 44.1857 47.0259 44.5079Z" fill="#004B7B"/>
<path d="M64.9513 100.609C65.6534 98.3532 66.3554 96.0983 67.0574 93.8446C68.3895 89.5838 69.7036 85.314 71.0752 81.0641C71.3092 80.344 71.1292 79.948 70.5982 79.4602C66.7532 75.9392 62.9407 72.3805 59.0399 68.7605L74.418 47.8454L57.9706 40.7963C58.5773 39.8009 59.1281 38.8576 59.7149 37.9378C61.893 34.532 63.7561 30.9175 66.4814 27.8789C69.9862 23.971 74.1677 21.1827 79.4294 20.3276C85.7729 19.298 91.4431 21.0476 96.2565 25.159C104.267 31.9993 107.43 40.8305 106.184 51.2098C105.394 57.7945 102.249 63.4179 98.4112 68.6849C94.145 74.5316 89.0724 79.6474 83.7136 84.4518C77.7967 89.753 71.7718 94.9337 65.792 100.166C65.5706 100.359 65.3312 100.527 65.1007 100.707L64.9513 100.609Z" fill="#004B7B"/>
</g>
<defs>
<clipPath id="clip0_539_4679">
<rect width="90.4395" height="82.98" fill="white" transform="translate(16 20)"/>
</clipPath>
</defs>
</svg>
