<?xml version="1.0" encoding="utf-8"?>
<!-- Generator: Adobe Illustrator 25.4.1, SVG Export Plug-In . SVG Version: 6.00 Build 0)  -->
<svg version="1.1" id="レイヤー_1" xmlns="http://www.w3.org/2000/svg" xmlns:xlink="http://www.w3.org/1999/xlink" x="0px"
	 y="0px" viewBox="0 0 402.5 90.7" style="enable-background:new 0 0 402.5 90.7;" xml:space="preserve">
<style type="text/css">
	.st0{fill:#00A0E9;}
</style>
<g>
	<path class="st0" d="M396.3,79.5L370,10.2C369.7,9.5,369,9,368.3,9h-18.4c-0.5,0-1,0.3-1.2,0.8l-26.4,69.3c-0.3,1,0.3,1.9,1.3,2.2
		c0.1,0,0.3,0.1,0.4,0.1h16.5c0.5,0,1.1-0.3,1.2-0.8l3.7-10.9c0.2-0.5,0.7-0.9,1.2-0.8h24.6c0.8,0,1.4,0.5,1.7,1.3l3.4,10.1
		c0.3,0.7,0.9,1.2,1.7,1.3h17.1c0.7,0,1.3-0.5,1.3-1.2c0,0,0,0,0,0C396.5,79.9,396.5,79.7,396.3,79.5z M365.9,54.5h-12.6
		c-1-0.1-1.7-0.9-1.7-1.9c0-0.1,0-0.3,0-0.4l6.3-17.9c0.4-1.3,2.4-1,2.9,0.5l6.3,17.9c0.3,0.6,0,1.4-0.6,1.7
		C366.3,54.4,366.1,54.5,365.9,54.5z M160.2,53.5c-0.5-0.5-0.5-1.4,0-1.9c0,0,0,0,0,0c0.1-0.1,0.3-0.3,0.5-0.3
		c4-1.1,7.5-3.4,10.1-6.5c2.8-3.9,4.2-8.7,4-13.6c0-3-0.5-5.9-1.5-8.7c-2-5.6-6.4-10-12-12.1c-3.4-1.3-7-1.9-10.7-1.8h-28.4
		c-0.7,0-1.3,0.5-1.3,1.2V80c0.1,1,0.8,1.8,1.8,1.8h15.9c0.7,0,1.2-0.5,1.3-1.2V58.3c0-1.5,2-1.7,2.8-0.4l14.8,23
		c0.3,0.5,0.9,0.9,1.5,0.9h20.1c1.2,0,1.7-1.3,0.9-2.3L160.2,53.5z M152.2,39c-2.5,1.7-5.6,2.5-8.6,2.3h-1.7c-1,0-1.8-0.8-1.8-1.8
		v-15c0-0.7,0.5-1.2,1.2-1.3c0,0,0,0,0,0h2.3c3.1-0.2,6.1,0.6,8.7,2.3c2,1.6,3.2,4.1,3,6.7C155.4,34.9,154.3,37.4,152.2,39L152.2,39
		z M246.7,8.5h-15.9c-0.7,0-1.2,0.5-1.3,1.2c0,0,0,0,0,0l0,0v38.6c0,2.1-0.1,4.3-0.3,6.6c-0.1,2.1-0.6,4.2-1.5,6.1
		c-0.8,1.8-2,3.4-3.7,4.5c-2.2,1.3-4.8,1.8-7.3,1.7c-2.6,0.2-5.1-0.4-7.4-1.7c-1.7-1.1-3-2.6-3.8-4.4c-0.9-1.9-1.4-4-1.6-6
		c-0.2-2.3-0.2-4.5-0.2-6.6v-38c-0.1-1-0.8-1.8-1.8-1.8h-16c-0.7,0-1.2,0.5-1.3,1.2V51c0,11.4,2.6,19.7,7.9,25s13.3,7.9,24.1,7.9
		c10.8,0,18.9-2.6,24.1-7.9c5.2-5.2,7.8-13.6,7.8-25V10.3C248.5,9.4,247.7,8.6,246.7,8.5z M300,53.5c-0.5-0.5-0.5-1.4,0-1.9
		c0.1-0.1,0.3-0.3,0.5-0.3c4-1.1,7.5-3.4,10.1-6.5c2.8-4,4.2-8.7,4-13.6c0-3-0.5-5.9-1.5-8.7c-2-5.6-6.4-10.1-12-12.1
		c-3.4-1.3-7-1.9-10.6-1.8H262c-0.7,0-1.2,0.5-1.3,1.2c0,0,0,0,0,0l0,0V80c0.1,1,0.8,1.7,1.8,1.8h16c0.7,0,1.2-0.5,1.3-1.2V58.3
		c0-1.5,2-1.7,2.8-0.4l14.8,23c0.3,0.5,0.9,0.9,1.5,0.9h20.1c1.2,0,1.7-1.3,0.9-2.3L300,53.5z M292,39c-2.5,1.7-5.6,2.5-8.7,2.3
		h-1.7c-1,0-1.8-0.8-1.8-1.8v-15c0-0.7,0.5-1.2,1.2-1.3c0,0,0,0,0,0h2.5c3.1-0.2,6.1,0.6,8.7,2.3c2,1.6,3.2,4.1,3,6.7
		c0.1,2.6-1,5.1-3.1,6.7L292,39z"/>
	<path class="st0" d="M8,31.8c0.5,1.7,2.3,2.8,4,2.3c1.7-0.5,2.8-2.3,2.3-4c0-0.1-0.1-0.3-0.1-0.4l0,0c-2.6-7.5-2.2-13.6,1.2-17
		c3.7-3.8,10.9-4.3,19.8-1.3c1.4,0.5,2.7,0.9,4,1.5c2.1-1.5,4.3-2.9,6.6-4.2c-2.8-1.3-5.7-2.4-8.6-3.4C25.9,1.4,16.3,2.5,10.8,8.1
		C5.6,13.4,4.6,21.8,8,31.8z M58.7,5.2c-2.7,0.9-5.3,2.1-7.9,3.4C50,9,49.2,9.4,48.3,9.9c-2.2,1.2-4.4,2.5-6.6,4
		c-0.8,0.5-1.5,1-2.2,1.7c-5.3,3.9-10.3,8.4-14.7,13.3l0,0c-1.2,1.4-1,3.4,0.4,4.6c1.3,1.1,3.3,1,4.4-0.2l0,0
		c4.9-5.4,10.5-10.3,16.5-14.4c0.7-0.5,1.5-1,2.2-1.4l0.2,0.1c0.7,0.4,1.4,0.8,2.1,1.3c5.8,3.8,11,8.6,15.3,14l0,0
		c1.1,1.4,3.2,1.6,4.6,0.5c1.4-1.1,1.6-3.2,0.5-4.6l0,0l0,0c-4-5-8.6-9.4-13.8-13.3c-0.8-0.6-1.5-1.1-2.3-1.6
		c0.8-0.4,1.7-0.8,2.5-1.1c1.1-0.5,2.2-0.9,3.4-1.2c8.8-3,16-2.5,19.8,1.3c3.4,3.4,3.8,9.5,1.2,17l0,0c-0.6,1.7,0.3,3.5,2,4.1
		c1.7,0.6,3.5-0.3,4.1-2l0,0c3.5-10.1,2.5-18.5-2.7-23.7C79.6,2.5,70,1.4,58.7,5.2z M77.6,52c4.2,0,7.7-3.4,7.7-7.7
		c0-4.2-3.4-7.7-7.7-7.7c-4.2,0-7.7,3.4-7.7,7.7c0,0,0,0,0,0l0,0C70,48.6,73.4,52,77.6,52L77.6,52L77.6,52z M11.2,44.1
		c0,4.2,3.4,7.7,7.7,7.7s7.7-3.4,7.7-7.7s-3.4-7.7-7.7-7.7h0l0,0C14.7,36.4,11.3,39.8,11.2,44.1L11.2,44.1z M83.7,54.8
		c-1.7,0.5-2.6,2.4-2.1,4c0,0,0,0,0,0l0,0c2.9,8.6,2.3,15.7-1.7,19.5s-10.4,3.8-18.4,0.8c-1.7-0.7-3.4-1.4-5-2.1
		c-2,1.5-4.1,2.9-6.3,4.1c2.9,1.5,5.9,2.9,8.9,4.1c3.9,1.6,8.1,2.5,12.4,2.6c4.7,0.2,9.3-1.5,12.8-4.6c5.8-5.6,7-15.1,3.4-26.2
		C87.2,55.2,85.4,54.3,83.7,54.8z M56.3,74.3c5.5-4.2,10.4-9,14.7-14.4l0,0c1.4-1.1,1.6-3.2,0.4-4.6c-1.1-1.4-3.2-1.6-4.6-0.4
		c-0.2,0.1-0.3,0.3-0.5,0.5c-0.1,0.1-0.2,0.3-0.3,0.4l0,0c-4.6,5.7-10,10.8-16,15c-0.6,0.4-1.3,0.9-1.9,1.3l-2.2-1.3L45,70.2
		c-5.7-4.1-10.7-9-15.1-14.4l0,0c-1-1.5-3-1.9-4.5-0.9c-1.5,1-1.9,3-0.9,4.5c0,0,0.1,0.1,0.1,0.1c0.1,0.1,0.2,0.3,0.3,0.4l0,0
		c4.3,5.4,9.2,10.2,14.6,14.4c0.7,0.5,1.4,1.1,2.1,1.6L39.3,77c-1.6,0.8-3.3,1.5-5,2.1c-7.9,3.1-14.6,2.9-18.3-0.8
		c-3.7-3.6-4.5-10.8-1.7-19.5c0.8-1.6,0.1-3.5-1.5-4.3c-1.6-0.8-3.5-0.1-4.3,1.5l0,0c-0.1,0.2-0.2,0.5-0.3,0.7
		C4.4,68,5.6,77.5,11.5,83c3.5,3.2,8.1,4.8,12.8,4.7c4.2-0.1,8.4-0.9,12.4-2.5c3-1.2,6-2.5,8.9-4c0.8-0.4,1.7-0.9,2.4-1.3
		c2.2-1.2,4.3-2.6,6.3-4C55,75.3,55.7,74.8,56.3,74.3z"/>
</g>
</svg>
