<svg width="473" height="60" viewBox="0 0 473 60" fill="none" xmlns="http://www.w3.org/2000/svg">
<g clip-path="url(#clip0_430_4529)">
<path d="M317.132 41.9724L318.684 17.7349H324.966L330.583 34.6568L336.421 17.7349H342.629L344.181 41.9724H339.969L338.712 22.6119L332.356 40.9379H328.513L322.379 22.6119L321.123 41.9724H317.132Z" fill="white"/>
<path d="M359.702 41.9724C359.628 41.4552 359.554 41.0118 359.48 40.4945C358.076 41.6768 356.302 42.268 354.454 42.1941C353.789 42.268 353.124 42.1941 352.459 41.9724C351.794 41.7507 351.202 41.4552 350.685 41.0118C350.168 40.5684 349.798 39.9773 349.503 39.3861C349.207 38.7949 349.059 38.1299 349.059 37.3909C349.059 34.2873 350.094 31.8488 359.036 31.4793V31.036C359.036 28.6713 357.78 27.489 355.637 27.489C354.159 27.489 352.681 27.8585 351.276 28.3758V25.1244C353.05 24.3115 354.972 23.8682 356.967 23.9421C360.884 23.9421 363.101 26.3067 363.101 30.6665V35.4697C363.101 37.6126 363.249 39.8295 363.545 41.9724H359.702ZM359.11 34.4351C354.898 34.6568 353.42 35.3958 353.42 37.0954C353.42 38.7949 354.233 39.1644 355.785 39.1644C356.967 39.1644 358.15 38.6472 359.036 37.8343L359.11 34.4351Z" fill="white"/>
<path d="M384.46 26.9717C383.869 26.9717 383.204 26.9717 382.613 26.9717C383.278 27.7106 383.721 28.6713 383.721 29.7058C383.721 33.4005 381.134 36.0608 375.813 36.0608C375.222 36.0608 374.631 36.0608 374.039 35.913L373.448 36.578C372.931 37.0953 372.783 37.3909 372.783 37.7603C372.783 38.1298 373.079 38.7949 374.113 38.7949H379.656C383.943 38.7949 385.717 40.79 385.717 43.4503C385.717 47.9578 382.095 50.4703 375 50.4703C369.531 50.4703 368.053 48.1056 368.053 46.1105C368.053 45.3715 368.275 44.6326 368.718 44.0414C369.088 43.3764 369.679 42.8591 370.344 42.5635L370.714 42.2679C370.122 42.0462 369.605 41.6768 369.309 41.1595C368.94 40.6422 368.792 40.0511 368.792 39.386C368.792 38.7949 369.014 38.1298 369.236 37.6126C369.457 37.0953 369.901 36.578 370.418 36.2085L371.453 35.1001C370.64 34.6568 369.901 33.9178 369.457 33.105C369.014 32.2921 368.792 31.3315 368.792 30.3708C368.792 26.011 371.97 23.7942 376.552 23.7942C377.883 23.7942 379.139 24.0898 380.321 24.5331C381.578 24.3115 382.908 24.2376 384.239 24.2376H385.791V27.1195L384.46 26.9717ZM373.374 42.4896L373.079 42.7113C371.97 43.5241 371.748 44.1153 371.748 44.8543C371.748 45.6671 372.783 47.0711 375.887 47.0711C379.952 47.0711 381.578 45.9627 381.578 44.7065C381.578 43.4503 380.691 42.6374 378.696 42.6374L373.374 42.4896ZM376.257 26.6761C375.813 26.6022 375.37 26.6761 375 26.75C374.631 26.8239 374.187 27.1195 373.892 27.415C373.596 27.7106 373.3 28.0801 373.153 28.4496C373.005 28.819 372.931 29.2624 373.005 29.7058C373.005 32.0704 374.335 32.8833 376.331 32.8833C378.696 32.8833 379.656 31.5532 379.656 29.7797C379.73 27.6367 378.474 26.6761 376.257 26.6761Z" fill="white"/>
<path d="M399.242 41.9724C399.168 41.4552 399.094 41.0118 399.02 40.4945C397.616 41.6768 395.842 42.268 393.994 42.1941C393.329 42.268 392.664 42.1941 391.999 41.9724C391.334 41.7507 390.742 41.4552 390.225 41.0118C389.708 40.5684 389.338 39.9773 389.042 39.3861C388.747 38.7949 388.599 38.1299 388.599 37.3909C388.599 34.2873 389.634 31.8488 398.576 31.4793V31.036C398.65 30.5926 398.576 30.0753 398.502 29.632C398.355 29.1886 398.133 28.7452 397.763 28.4496C397.394 28.1541 397.024 27.8585 396.581 27.6368C396.137 27.489 395.694 27.4151 395.177 27.489C393.699 27.489 392.22 27.8585 390.816 28.3758V25.1244C392.59 24.3115 394.512 23.8682 396.507 23.9421C400.424 23.9421 402.715 26.3067 402.715 30.6665V35.4697C402.715 37.6126 402.789 39.8295 403.085 41.9724H399.242ZM398.65 34.4351C394.438 34.6568 392.959 35.3958 392.959 37.0954C392.959 38.7949 393.699 39.1644 395.324 39.1644C396.581 39.1644 397.689 38.6472 398.65 37.8343V34.4351Z" fill="white"/>
<path d="M407.667 41.9724V39.3122L415.87 27.5629H408.036V24.0898H421.266V26.824L412.84 38.4255H421.413V41.8985H407.667V41.9724Z" fill="white"/>
<path d="M426.291 16.7002H430.8V20.7644H426.291V16.7002ZM426.439 24.0897H430.652V41.9723H426.439V24.0897Z" fill="white"/>
<path d="M437.008 41.9724V24.0898H440.999V25.8633C442.477 24.5332 444.398 23.7942 446.394 23.7942C447.207 23.7203 447.946 23.8681 448.759 24.1637C449.498 24.4593 450.163 24.9026 450.754 25.4199C451.345 26.0111 451.715 26.6761 452.011 27.4151C452.306 28.154 452.38 28.9669 452.38 29.7797V41.9724H448.094V31.0359C448.094 28.3757 446.615 27.4151 444.989 27.4151C443.659 27.4151 442.329 27.9323 441.294 28.8191V41.9724H437.008Z" fill="white"/>
<path d="M472.261 41.3813C470.339 41.9724 468.344 42.1941 466.348 42.1941C459.401 42.1941 457.627 37.6865 457.627 33.844C457.627 27.5629 460.805 23.8682 465.979 23.8682C470.487 23.8682 473 26.6023 473 31.5532V34.509H461.766C462.136 38.3516 464.796 38.8688 467.9 38.8688C469.379 38.7949 470.783 38.6472 472.261 38.2777V41.3813V41.3813ZM469.009 31.4793C469.009 28.0802 467.605 27.2673 465.757 27.2673C463.909 27.2673 462.21 28.3019 461.84 31.4793H469.009Z" fill="white"/>
<path d="M258.746 54.0173L241.304 8.05463C241.23 7.83294 241.082 7.61126 240.86 7.53736C240.639 7.38957 240.417 7.31568 240.195 7.31568H228.075C227.927 7.31568 227.705 7.38957 227.631 7.46347C227.483 7.53736 227.409 7.68515 227.336 7.83294L209.746 53.7956C209.672 53.9434 209.672 54.0912 209.672 54.239C209.672 54.3868 209.746 54.5346 209.82 54.6824C209.894 54.8301 210.041 54.904 210.115 55.0518C210.263 55.1257 210.411 55.1996 210.559 55.1996H221.645C221.793 55.1996 222.014 55.1257 222.088 55.0518C222.162 54.9779 222.31 54.8301 222.384 54.6824L224.749 47.5145C224.823 47.3668 224.897 47.219 225.044 47.1451C225.192 47.0712 225.34 46.9973 225.488 46.9973H241.821C242.117 46.9973 242.338 47.0712 242.56 47.219C242.782 47.3668 242.93 47.5884 242.93 47.884L245.147 54.5346C245.221 54.7563 245.443 54.9779 245.59 55.1257C245.738 55.2735 246.034 55.4213 246.256 55.4213H257.563C257.785 55.4213 258.007 55.3474 258.154 55.1996C258.302 55.0518 258.45 54.8301 258.45 54.6085C258.672 54.3129 258.672 54.239 258.746 54.0173ZM238.643 37.4648H230.292C230.144 37.4648 229.996 37.3909 229.848 37.3909C229.701 37.3909 229.553 37.2431 229.479 37.0954C229.405 36.9476 229.331 36.8737 229.257 36.7259C229.183 36.5781 229.183 36.4303 229.183 36.2825V36.0608L233.322 24.1637C233.691 23.277 235.022 23.4987 235.317 24.5332L239.456 36.2825C239.53 36.3564 239.53 36.5042 239.53 36.5781C239.53 36.7259 239.53 36.7998 239.456 36.8737C239.382 36.9476 239.382 37.0954 239.308 37.1692C239.234 37.2431 239.161 37.317 239.013 37.317C239.013 37.317 238.791 37.317 238.643 37.317V37.4648ZM102.212 36.652C102.064 36.5042 101.991 36.2825 101.991 36.0608C101.991 35.8391 102.064 35.6175 102.212 35.4697C102.212 35.4697 102.434 35.248 102.582 35.248C105.242 34.6568 107.533 33.1789 109.233 31.1099C111.081 28.4496 112.042 25.3461 111.894 22.0947C111.894 20.0995 111.524 18.1782 110.859 16.3309C110.194 14.4835 109.159 12.7839 107.755 11.4538C106.351 10.0498 104.725 9.01526 102.877 8.35021C100.586 7.46347 98.1474 7.0201 95.7085 7.09399H76.9363C76.7146 7.09399 76.4929 7.16789 76.3451 7.31568C76.1973 7.46347 76.0494 7.68515 76.0494 7.90684V54.4607C76.0494 54.6085 76.0494 54.7563 76.1233 54.904C76.1972 55.0518 76.2712 55.1996 76.419 55.2735C76.5668 55.3474 76.6407 55.4952 76.7885 55.5691C76.9363 55.643 77.0841 55.643 77.2319 55.643H87.8005C88.0223 55.643 88.244 55.5691 88.3918 55.4213C88.5396 55.2735 88.6874 55.1257 88.6874 54.904V40.125C88.6874 39.0905 90.0177 39.0166 90.609 39.9034L100.512 55.0518C100.586 55.1996 100.734 55.3474 100.956 55.4952C101.104 55.5691 101.325 55.643 101.547 55.643H114.85C115.663 55.643 115.959 54.7563 115.368 54.0912L102.212 36.652ZM96.891 26.9717C95.1912 28.0802 93.1957 28.6713 91.1263 28.5235H90.0177C89.7221 28.5235 89.3526 28.3757 89.1308 28.1541C88.9091 27.9324 88.7613 27.6368 88.7613 27.2673V17.5132C88.7613 17.4393 88.7613 17.2915 88.8352 17.2176C88.8352 17.1437 88.9091 16.9959 88.983 16.922C89.0569 16.8481 89.1308 16.7742 89.2787 16.7742C89.3526 16.7003 89.5004 16.7003 89.5743 16.7003H91.1263C93.1957 16.6264 95.1912 17.1437 96.891 18.2521C97.5562 18.7694 98.0735 19.4345 98.443 20.2473C98.8126 20.9862 98.9604 21.873 98.8865 22.6858C98.9604 23.4987 98.8126 24.3854 98.443 25.1244C98.1474 25.8633 97.5562 26.5284 96.891 26.9717ZM159.637 6.9462H149.069C148.847 6.9462 148.625 7.0201 148.478 7.16789C148.33 7.31568 148.182 7.53736 148.182 7.68515V33.3267C148.182 34.8046 148.182 36.2086 148.182 37.6865C148.108 39.0905 147.738 40.4206 147.147 41.6768C146.63 42.8592 145.817 43.8937 144.782 44.7065C143.23 45.4455 141.604 45.815 139.904 45.815C138.205 45.815 136.579 45.4455 135.027 44.7065C133.918 44.0415 133.031 43.007 132.44 41.8246C131.775 40.5684 131.405 39.1644 131.257 37.7604C131.257 36.2086 131.257 34.7307 131.257 33.4006V8.20242C131.257 7.90684 131.11 7.53736 130.888 7.31568C130.666 7.09399 130.371 6.9462 130.001 6.9462H119.285C119.063 6.9462 118.841 7.0201 118.693 7.16789C118.546 7.31568 118.398 7.53736 118.398 7.75905V35.1002C118.398 42.6375 120.171 48.2535 123.645 51.6527C127.119 55.1257 132.44 56.8992 139.683 56.8992C146.926 56.8992 152.173 55.1257 155.72 51.6527C159.268 48.1796 160.968 42.6375 160.968 35.1002V8.20242C160.894 7.90684 160.746 7.61126 160.45 7.38957C160.155 7.16789 159.859 7.0201 159.637 6.9462ZM194.817 36.7998C194.669 36.5781 194.595 36.3564 194.595 36.1347C194.595 35.913 194.669 35.6175 194.817 35.4697C194.817 35.4697 195.038 35.4697 195.186 35.248C197.847 34.6568 200.212 33.1789 201.912 31.036C203.759 28.3757 204.72 25.1983 204.572 22.0208C204.572 20.0256 204.203 18.1043 203.538 16.257C202.946 14.4096 201.912 12.71 200.508 11.306C199.103 9.902 197.477 8.79358 195.63 8.12852C193.339 7.31568 190.9 6.87231 188.461 6.9462H169.763C169.541 6.9462 169.319 7.0201 169.171 7.16789C169.023 7.31568 168.876 7.46347 168.876 7.68515V54.3129C168.876 54.6085 169.023 54.904 169.245 55.1257C169.467 55.3474 169.763 55.4952 170.058 55.4952H180.627C180.848 55.4952 181.07 55.4213 181.218 55.2735C181.366 55.1257 181.514 54.904 181.514 54.7562V39.9034C181.514 38.8688 182.844 38.7949 183.435 39.6817L193.117 54.904C193.191 55.0518 193.339 55.1996 193.56 55.3474C193.708 55.4213 193.93 55.4952 194.152 55.4952H207.603C207.75 55.4952 207.972 55.4213 208.12 55.3474C208.268 55.2735 208.342 55.1257 208.416 54.904C208.489 54.7563 208.489 54.5346 208.416 54.3868C208.342 54.239 208.268 54.0912 208.12 53.9434L194.817 36.7998ZM189.496 27.1195C187.796 28.228 185.8 28.7452 183.731 28.6713H182.622C182.474 28.6713 182.327 28.6713 182.179 28.5974C182.031 28.5235 181.883 28.4496 181.735 28.3757C181.588 28.228 181.514 28.1541 181.44 28.0063C181.366 27.8585 181.366 27.7107 181.366 27.5629V17.5132C181.366 17.3654 181.366 17.2915 181.44 17.1437C181.514 17.0698 181.514 16.922 181.661 16.8481C181.735 16.7742 181.883 16.7003 181.957 16.7003C182.105 16.7003 182.179 16.6264 182.327 16.7003H184.026C186.096 16.6264 188.091 17.1437 189.791 18.2521C190.456 18.7694 190.974 19.4345 191.343 20.2473C191.713 20.9862 191.861 21.873 191.787 22.6858C191.861 23.4987 191.639 24.3854 191.269 25.1244C190.826 25.8633 190.235 26.5284 189.496 27.1195Z" fill="white"/>
<path d="M1.33021 22.3162C1.55193 22.8335 1.92146 23.2769 2.3649 23.5725C2.88225 23.868 3.39959 23.9419 3.99084 23.868C4.50818 23.7202 4.95162 23.2769 5.24725 22.8335C5.54287 22.3162 5.61678 21.799 5.54287 21.2078C5.54287 21.06 5.39506 20.9861 5.39506 20.8383C3.62131 15.8874 3.91693 11.897 6.20803 9.53241C8.42521 7.16777 13.3769 6.79829 19.3633 8.64567L22.024 9.6802C23.5021 8.64567 24.9063 7.75893 26.3844 6.87219C24.5368 6.05934 22.6152 5.39429 20.6937 4.80313C13.303 2.2168 6.94709 2.95575 3.25178 6.6505C-0.369629 10.2714 -0.960879 15.7396 1.33021 22.3162ZM34.9576 4.80313C33.1838 5.46818 31.4101 6.20713 29.7102 7.01998C29.119 7.31556 28.6016 7.61114 28.0104 7.90672C26.5322 8.71956 25.0541 9.6063 23.6499 10.5669C23.1326 10.8625 22.6152 11.232 22.2457 11.6754C18.6982 14.2617 15.4463 17.2175 12.4901 20.4689C12.3422 20.6905 12.1944 20.9122 12.0466 21.2078C11.9727 21.5034 11.8988 21.7251 11.9727 22.0207C11.9727 22.3162 12.0466 22.5379 12.1944 22.8335C12.3422 23.0552 12.4901 23.2769 12.7118 23.4986C13.0813 23.868 13.5987 24.0897 14.1899 24.0897C14.7072 24.0897 15.2246 23.868 15.668 23.4986C18.9199 19.8777 22.6152 16.7002 26.6801 13.9661C27.1235 13.5966 27.6408 13.3011 28.0843 12.9316H28.2321C28.6755 13.2272 29.119 13.5227 29.5624 13.8183C33.4055 16.3307 36.8052 19.4343 39.6876 23.0552C39.8354 23.2769 40.0571 23.4986 40.3527 23.6463C40.5744 23.7941 40.8701 23.9419 41.1657 23.9419C41.4613 24.0158 41.7569 23.9419 42.0526 23.868C42.3482 23.7941 42.6438 23.6463 42.8655 23.4986C43.0872 23.2769 43.309 23.0552 43.4568 22.8335C43.6046 22.5379 43.6785 22.2423 43.6785 21.9468C43.6785 21.6512 43.6785 21.3556 43.5307 21.06C43.4568 20.7644 43.2351 20.5428 43.0133 20.3211C40.3527 17.0697 37.2487 14.1139 33.849 11.5276L32.4447 10.4191C32.9621 10.1975 33.5533 9.90188 34.1446 9.6063C34.8837 9.31072 35.6227 9.01514 36.3618 8.86735C42.2743 6.87219 47.0782 7.16777 49.5171 9.75409C51.956 12.3404 52.1038 15.9613 50.2562 20.9861C50.0344 21.5034 50.1083 22.0946 50.3301 22.6118C50.5518 23.1291 50.9952 23.4986 51.5865 23.7202C52.1038 23.9419 52.6951 23.868 53.2124 23.6463C53.7297 23.4247 54.0993 22.9813 54.321 22.3901C56.686 15.7396 56.0208 10.1975 52.5472 6.7244C48.9997 3.32523 42.4221 2.2168 34.9576 4.80313ZM47.5216 35.7651C48.5563 35.7651 49.5171 35.4695 50.404 34.8784C51.2169 34.2872 51.8821 33.5483 52.3255 32.5876C52.6951 31.627 52.8429 30.5925 52.6212 29.6318C52.3994 28.6712 51.956 27.7106 51.2169 26.9716C50.4779 26.2327 49.591 25.7893 48.5563 25.5676C47.5955 25.3459 46.5608 25.4937 45.6001 25.8632C44.6393 26.2327 43.8263 26.8977 43.309 27.7845C42.7177 28.5973 42.4221 29.6318 42.4221 30.6664C42.4221 31.3314 42.5699 31.9965 42.7916 32.6615C43.0133 33.2527 43.4568 33.8439 43.9002 34.3611C44.3437 34.8045 44.9349 35.2479 45.6001 35.4695C46.1913 35.6912 46.8565 35.7651 47.5216 35.7651ZM3.4735 30.5925C3.4735 31.2575 3.5474 31.9226 3.84303 32.5876C4.06475 33.2527 4.43428 33.77 4.95162 34.2872C5.39506 34.8045 5.98631 35.174 6.65146 35.3957C7.24271 35.6912 7.98178 35.7651 8.64693 35.7651C9.31209 35.7651 9.97725 35.6912 10.6424 35.3957C11.2337 35.174 11.8249 34.8045 12.3422 34.2872C12.7857 33.8439 13.2291 33.2527 13.4508 32.5876C13.6726 31.9965 13.8204 31.2575 13.8204 30.5925C13.8204 29.9274 13.7465 29.2624 13.4508 28.5973C13.1552 27.9323 12.8596 27.415 12.3422 26.8977C11.8988 26.3805 11.3076 26.011 10.6424 25.7893C9.97725 25.5676 9.31209 25.4198 8.64693 25.4198C7.98178 25.4198 7.31662 25.5676 6.65146 25.7893C6.06021 26.011 5.46896 26.4544 4.95162 26.8977C4.50818 27.3411 4.06475 27.9323 3.84303 28.5973C3.62131 29.1885 3.4735 29.8535 3.4735 30.5925ZM51.5126 37.6864C51.2169 37.7603 50.9952 37.9081 50.7735 38.0559C50.5518 38.2037 50.3301 38.4253 50.2562 38.7209C50.1083 38.9426 50.0344 39.2382 50.0344 39.5338C50.0344 39.8294 50.0344 40.1249 50.1083 40.3466C52.0299 46.0365 51.5126 50.7658 48.9998 53.2782C46.413 55.7168 42.1265 55.8646 36.8791 53.7216C35.7705 53.2782 34.6619 52.8349 33.5533 52.3176C32.223 53.3521 30.8188 54.2389 29.4146 55.0517C31.3362 56.0862 33.3316 56.973 35.3271 57.7119C37.9138 58.8204 40.7222 59.4115 43.5307 59.4115C46.6347 59.4854 49.6649 58.377 51.956 56.3079C55.873 52.6871 56.7599 46.3321 54.1732 38.9426C53.9515 38.4253 53.508 38.0559 52.9907 37.8342C52.4733 37.6125 51.8821 37.6125 51.3647 37.7603L51.5126 37.6864ZM33.4055 50.5441C37.0269 47.7361 40.3527 44.5586 43.1612 41.0117C43.3829 40.8639 43.5307 40.6422 43.6785 40.3466C43.8263 40.1249 43.9002 39.8294 43.9002 39.5338C43.9002 39.2382 43.9002 38.9426 43.8263 38.7209C43.7524 38.4253 43.6046 38.2037 43.3829 37.982C43.2351 37.7603 43.0133 37.6125 42.7177 37.4647C42.496 37.3169 42.2004 37.243 41.9047 37.243C41.6091 37.243 41.3135 37.243 41.0918 37.3169C40.7962 37.3908 40.5744 37.5386 40.3527 37.7603C40.2049 37.8342 40.131 37.982 39.9832 38.1298C39.8354 38.1298 39.8354 38.3515 39.7615 38.3515C36.8052 42.1201 33.2577 45.4454 29.2668 48.2534C28.8233 48.6229 28.3799 48.7706 27.9365 49.1401L26.5322 48.2534L26.0149 47.8839C22.2457 45.1498 18.9199 41.9723 15.9637 38.3515C15.5941 37.9081 15.1507 37.6125 14.5594 37.4647C13.9682 37.3169 13.4508 37.3908 12.9335 37.6864C12.4901 38.0559 12.1944 38.4992 12.0466 39.0904C11.8988 39.6077 11.9727 40.1988 12.2683 40.7161C12.2683 40.7161 12.2683 40.7161 12.4162 40.7161C12.564 40.7161 12.4162 40.9378 12.6379 40.9378C15.5202 44.4847 18.7721 47.6622 22.3196 50.4702C22.763 50.8397 23.2804 51.1353 23.7238 51.5048L22.1718 52.2437C21.0632 52.8349 19.9546 53.2782 18.846 53.7216C13.5987 55.7168 9.31209 55.6429 6.72537 53.2043C4.13865 50.7658 3.69521 46.0365 5.61678 40.2727C5.8385 39.7555 5.9124 39.1643 5.69068 38.647C5.46896 38.1298 5.09943 37.6864 4.58209 37.3908C4.06475 37.1691 3.4735 37.0952 2.95615 37.3169C2.43881 37.5386 1.99537 37.9081 1.69975 38.4253C1.62584 38.5731 1.62584 38.7209 1.69975 38.8687C-0.665254 46.1843 -9.77938e-05 52.5393 3.91693 56.1601C6.20803 58.2292 9.23818 59.4115 12.3422 59.2637C15.1507 59.1898 17.9591 58.6726 20.5458 57.5641C22.5413 56.7513 24.5368 55.8646 26.4583 54.9039C27.0496 54.6822 27.5669 54.3867 28.1582 54.0172C29.6363 53.2043 31.0405 52.3176 32.3708 51.357C32.6665 51.0614 33.036 50.8397 33.4055 50.5441Z" fill="white"/>
<path d="M270.866 0L293.482 59.3377H295.699L273.084 0H270.866Z" fill="white"/>
</g>
<defs>
<clipPath id="clip0_430_4529">
<rect width="473" height="59.8549" fill="white"/>
</clipPath>
</defs>
</svg>
