<svg viewBox="0 0 277 190" fill="none" xmlns="http://www.w3.org/2000/svg">
<path d="M55.459 118.86C56.2212 118.374 57.0104 117.93 57.8183 117.521C59.6293 116.589 61.5304 115.845 63.4923 115.299C63.6953 115.284 63.8938 115.232 64.078 115.145C64.9835 114.729 65.8869 114.318 66.7883 113.909C67.0894 113.996 67.3927 114.077 67.7 114.148C69.79 114.641 71.9668 114.633 74.0531 114.125L72.807 119.72L72.0344 123.186C71.7811 124.325 72.9566 125.297 74.0116 124.707C76.3543 123.396 78.7178 122.044 81.3471 121.436C81.6669 121.361 81.9701 121.305 82.2734 121.257C82.5247 121.739 82.776 122.221 83.0314 122.7C82.8697 122.661 82.7016 122.654 82.5371 122.68C82.3727 122.707 82.2152 122.766 82.074 122.854C82.0387 122.875 81.8663 122.958 81.8019 122.993C81.7375 123.029 81.5112 123.095 81.4592 123.112C81.0833 123.23 80.6991 123.319 80.3149 123.417C79.5124 123.588 78.7199 123.803 77.941 124.061C76.2567 124.669 74.7385 125.901 75.1975 127.893C75.4592 129.024 76.1404 130.154 76.6991 131.164C77.4094 132.451 78.1799 133.706 78.9649 134.948C82.6825 140.817 86.7594 146.466 90.8674 152.065C91.8788 153.44 92.8903 154.815 93.9183 156.179C94.3545 156.759 95.0793 157.058 95.7605 156.661C96.3316 156.327 96.6826 155.405 96.2423 154.819C93.6282 151.348 91.0668 147.838 88.5579 144.289C86.4811 141.382 84.452 138.449 82.4977 135.463C80.9795 133.143 79.4322 130.792 78.2318 128.287L78.0594 127.915C78.0366 127.864 78.0137 127.812 77.9971 127.77C77.9493 127.652 77.9016 127.531 77.8559 127.411C77.8559 127.411 77.8268 127.286 77.8081 127.22C77.8081 127.207 77.8081 127.197 77.8081 127.184C77.8011 127.197 77.7962 127.211 77.7936 127.226L77.8081 127.207C77.7915 127.378 77.7811 127.292 77.7936 127.226C77.7936 127.243 77.7811 127.226 77.8102 127.166V127.18V127.17C77.8093 127.165 77.8093 127.16 77.8102 127.155L77.8413 127.124C77.8308 127.139 77.821 127.154 77.8123 127.17V127.189C77.8273 127.165 77.8405 127.14 77.8517 127.114C77.8673 127.097 77.884 127.081 77.9016 127.066C77.8559 127.12 78.1362 126.904 78.2193 126.858L78.427 126.757L78.4768 126.73L78.5496 126.705C80.1363 126.117 81.9639 126.048 83.4426 125.184C83.7076 125.038 83.9111 124.802 84.0158 124.518C84.2568 124.958 84.4935 125.402 84.7344 125.843C87.0834 130.129 89.5299 134.358 92.0222 138.568C94.1226 142.114 96.2555 145.64 98.4209 149.147C99.4594 150.827 100.458 152.545 101.559 154.184C101.576 154.206 101.591 154.23 101.605 154.254C102.265 155.293 103.65 154.996 104.064 153.932C105.619 149.945 107.054 145.909 108.44 141.859C110.265 136.532 112.01 131.151 113.466 125.699C113.547 125.836 113.655 125.955 113.783 126.049C113.912 126.142 114.058 126.208 114.213 126.244C115.166 126.43 116.104 126.686 117.019 127.01C117.292 127.094 117.557 127.202 117.811 127.332C117.956 127.405 118.103 127.479 118.243 127.564C118.324 127.612 118.546 127.772 118.486 127.724C118.515 127.748 118.542 127.773 118.569 127.799C118.478 128.325 118.346 128.842 118.172 129.346C117.696 130.57 116.953 131.714 116.317 132.86C115.625 134.115 114.933 135.368 114.24 136.62L110.087 144.136L105.333 152.705C104.502 154.221 106.818 155.581 107.657 154.063L116.755 137.621L118.965 133.627C119.7 132.298 120.537 130.958 120.957 129.486C121.244 128.476 121.433 127.216 120.805 126.3C120.344 125.625 119.603 125.191 118.872 124.867C117.606 124.312 116.283 123.901 114.926 123.641C114.602 123.576 114.265 123.617 113.966 123.758C114.29 122.482 114.594 121.204 114.878 119.924C115.634 119.906 116.39 119.937 117.142 120.015C118.677 120.15 120.191 120.469 121.651 120.966C122.749 121.357 123.79 119.944 123.171 118.989L118.762 112.194L117.865 110.81C120.654 112.235 123.509 113.544 126.411 114.711C126.469 114.758 126.533 114.798 126.602 114.829L126.627 114.84C126.419 119.508 124.461 123.909 123.03 128.291C122.533 129.812 122.035 131.407 122.218 133.018C122.45 135.083 123.098 137.079 123.617 139.081C124.359 141.938 124.932 144.819 124.967 147.779C124.371 149.814 123.774 151.849 123.177 153.882C121.873 158.32 120.569 162.759 119.266 167.199C118.998 165.745 117.854 164.659 116.799 163.567C115.503 162.225 114.284 160.811 113.007 159.453C112.124 158.514 111.138 157.351 109.937 156.794C109.838 156.735 109.732 156.688 109.621 156.655C108.824 156.384 107.968 156.337 107.146 156.518C106.523 156.714 105.941 157.022 105.428 157.428C105.233 157.567 105.042 157.71 104.851 157.843C104.577 157.708 104.272 157.649 103.968 157.673C103.918 157.673 103.869 157.691 103.819 157.702C103.769 157.712 103.68 157.702 103.611 157.72H103.586L103.397 157.739C103.281 157.739 103.165 157.756 103.05 157.768C102.659 157.797 102.271 157.861 101.891 157.959C101.018 158.244 100.221 158.721 99.557 159.355C98.8892 159.46 98.2461 159.685 97.6588 160.02C97.2586 160.245 96.8742 160.496 96.5082 160.773C96.1038 160.531 95.6474 160.389 95.1769 160.358C93.3825 160.256 91.9702 161.793 90.6348 162.778C88.6327 164.252 86.5289 165.322 83.9743 165.305C82.3648 165.305 80.7386 165.124 79.1311 165.035C78.4291 164.998 77.7105 164.911 77.0064 164.915C76.8552 164.752 76.6557 164.642 76.4374 164.601L62.9149 162.389L62.3916 162.304L67.8433 145.043L68.6741 142.402C68.7751 142.111 68.7625 141.794 68.6388 141.513C68.6388 141.465 68.6388 141.417 68.6388 141.369C67.5276 134.1 63.9118 127.22 58.6387 122.092C57.5315 121.017 56.3518 120.019 55.108 119.105C55.1994 119.035 55.3178 118.952 55.459 118.86Z" fill="#E7E7E7"/>
<path d="M39.4962 175.532C39.1455 175.287 38.8474 174.974 38.6194 174.612C38.3915 174.25 38.2384 173.846 38.1691 173.424C38.0092 172.439 38.4141 171.444 38.68 170.516C39.2781 168.404 39.9116 166.302 40.5492 164.204C42.0798 159.22 43.6769 154.235 45.2678 149.276C46.8109 144.449 48.3603 139.623 49.8369 134.771C50.4184 132.852 50.9895 130.927 51.515 128.991C52.0259 127.122 52.4164 125.207 52.9688 123.342C53.1574 122.679 53.3806 122.026 53.6375 121.386C58.7085 125.174 62.5333 130.389 64.6221 136.364C65.2488 138.178 65.713 140.044 66.0094 141.94L60.1942 160.391L59.3635 163.035C59.1558 163.675 59.6023 164.576 60.3022 164.697L73.4404 166.846C73.2182 167.021 72.9918 167.191 72.78 167.376C70.377 169.473 68.9689 172.423 68.485 175.544L39.4962 175.532Z" fill="#E7E7E7"/>
<path d="M129.605 114.954L132.512 119.731L136.251 133.853L130.643 134.061L127.528 143.199L123.374 131.776L129.605 114.954Z" fill="#E7E7E7"/>
<path d="M99.5175 106.654C102.469 107.431 105.567 107.292 107.935 105.327L107.962 105.309C105.885 106.073 103.64 106.125 101.478 105.795C96.8509 105.093 92.5746 102.443 89.2246 99.265C87.7598 97.8777 86.4379 96.347 85.2786 94.6959C85.208 95.3397 85.1387 95.9836 85.0709 96.6274C85.0464 96.8966 84.9574 97.1559 84.8113 97.3834C86.1675 98.6503 87.5694 99.8756 89.0398 101.003C92.1634 103.413 95.667 105.641 99.5175 106.654Z" fill="white"/>
<path d="M108.292 108.308C107.01 109.061 105.586 109.54 104.109 109.714C100.163 110.189 96.1655 108.615 92.7823 106.723C89.1934 104.717 85.9286 102.125 82.9276 99.3108L82.6804 100.636C82.6358 100.852 82.5256 101.049 82.3647 101.201L86.9172 107.928C87.8559 109.312 88.7981 110.697 89.7438 112.081C90.0362 112.248 90.3402 112.393 90.6535 112.515C90.6729 112.44 90.6986 112.366 90.7303 112.295C90.7995 112.024 90.9598 111.784 91.1844 111.617C91.4089 111.45 91.6841 111.364 91.964 111.375C92.2125 111.372 92.4567 111.44 92.668 111.571C94.6307 112.559 96.7865 113.257 98.99 113.392C101.92 113.575 105.067 112.943 107.466 111.371C107.58 111.296 107.694 111.217 107.808 111.139L107.985 111.006L108.13 110.887L108.35 110.696L108.4 110.646C108.463 110.05 108.504 109.45 108.523 108.852L108.292 108.308Z" fill="#00A0E9"/>
<path d="M91.752 115.072C92.7904 116.64 93.6004 118.395 94.4997 120.04C96.7081 124.094 98.9144 128.15 101.119 132.206C101.469 131.456 101.815 130.706 102.157 129.957L104.737 124.435C104.896 124.088 105.036 123.689 105.229 123.351C105.27 123.207 105.322 123.064 105.368 122.923C105.519 122.447 105.673 121.972 105.825 121.496C106.616 119.124 107.279 116.711 107.812 114.268C107.673 114.339 107.536 114.42 107.397 114.476C102.286 116.871 96.481 116.426 91.4924 113.978C91.365 113.934 91.2457 113.869 91.1393 113.787C90.9267 113.658 90.7628 113.463 90.6733 113.232C90.5838 113 90.5739 112.745 90.645 112.507C90.3318 112.385 90.0278 112.24 89.7354 112.073C90.4166 113.078 91.0915 114.071 91.752 115.072Z" fill="white"/>
<path d="M77.7936 127.203L77.779 127.222C77.7664 127.289 77.7769 127.374 77.7936 127.203Z" fill="white"/>
<path d="M77.802 127.151V127.166C77.8108 127.15 77.8205 127.135 77.8311 127.12L77.802 127.151Z" fill="white"/>
<path d="M77.4051 80.115C77.378 79.8647 77.4051 80.0461 77.4051 80.115V80.115Z" fill="white"/>
<path d="M118.506 127.481C118.479 127.481 118.525 127.623 118.562 127.737C118.575 127.592 118.562 127.494 118.506 127.481Z" fill="white"/>
<path d="M77.7791 127.223C77.7817 127.208 77.7867 127.194 77.7938 127.181V127.162C77.7665 127.231 77.7686 127.239 77.7791 127.223Z" fill="white"/>
<path d="M103.256 93.9027C103.463 94.1104 103.657 94.3035 103.879 94.4884C103.916 94.5195 103.96 94.5507 103.995 94.586C104.082 94.6421 104.165 94.7085 104.253 94.7646C104.34 94.8207 104.471 94.8934 104.583 94.9536C104.608 94.9681 104.637 94.9806 104.664 94.9931H104.674C104.76 95.0077 104.844 95.0299 104.926 95.0595H104.973H105.05C105.121 95.0325 105.196 95.0117 105.268 94.991C105.268 94.991 105.372 94.9474 105.457 94.8996C105.542 94.8518 105.665 94.7812 105.754 94.7148L105.881 94.6213L105.896 94.6109C106.001 94.5133 106.103 94.4219 106.215 94.3243C106.4 94.1478 106.579 93.9629 106.749 93.7698C106.845 93.6618 106.94 93.5496 107.034 93.4375C107.048 93.4167 107.1 93.3523 107.146 93.2942H102.71L102.759 93.3565C102.924 93.5351 103.092 93.722 103.256 93.9027Z" fill="white"/>
<path d="M114.427 71.7654H114.402C114.319 71.7239 114.209 71.699 114.352 71.753H114.388L114.427 71.7654Z" fill="white"/>
<path d="M107.559 85.2361C107.64 85.1904 107.601 85.1697 107.559 85.2361V85.2361Z" fill="white"/>
<path d="M107.557 85.242V85.2566C107.617 85.2275 107.638 85.2088 107.557 85.242Z" fill="white"/>
<path d="M111.885 71.9128L111.812 71.9378C111.626 72.0146 111.792 71.9565 111.885 71.9128Z" fill="white"/>
<path d="M114.517 71.8071L114.427 71.7737H114.45L114.519 71.7966L114.517 71.8071Z" fill="white"/>
<path d="M104.811 95.0554H104.887C104.847 95.0491 104.811 95.0428 104.811 95.0554Z" fill="white"/>
<path d="M114.641 71.8898C114.635 71.88 114.628 71.8716 114.618 71.8652V71.8652C114.618 71.8652 114.638 71.8853 114.641 71.8898Z" fill="white"/>
<path d="M35.8036 174.938C35.193 173.336 35.5253 171.781 35.9697 170.194C36.3311 168.904 36.7091 167.617 37.0933 166.333C37.9781 163.374 38.9002 160.425 39.8306 157.48C41.8514 151.093 43.9241 144.721 45.922 138.327C46.7528 135.637 47.5835 132.943 48.3665 130.227C49.0165 127.957 49.5358 125.658 50.1485 123.373C50.3312 122.698 50.5327 122.021 50.7715 121.355H43.9906C44.1982 122.131 43.7953 123.11 42.7444 123.11H35.3757C33.4131 123.11 31.3009 122.902 29.4068 123.508C27.8092 124.034 26.4079 125.031 25.3868 126.367C24.3657 127.704 23.7725 129.318 23.6851 130.997C23.6539 131.78 23.6851 132.57 23.6851 133.353V169.208C23.6851 170.454 22.3081 170.796 21.5251 170.261V175.515H36.0632C35.9656 175.338 35.8804 175.141 35.8036 174.938Z" fill="white"/>
<path d="M81.727 75.2671C81.5962 75.238 81.4653 75.209 81.3345 75.184L81.104 75.1508C81.0147 75.1508 80.7883 75.128 80.7094 75.1259C80.5183 75.1259 80.3314 75.1259 80.1424 75.1383C80.1029 75.1383 79.9617 75.1633 79.9347 75.1674H79.8724L79.3885 75.3003C79.351 75.312 79.3128 75.3217 79.2743 75.3294C79.2431 75.351 79.2105 75.3704 79.1767 75.3876C79.0396 75.4644 78.9067 75.5413 78.7737 75.6243C78.7452 75.6436 78.7153 75.661 78.6844 75.6762C78.6614 75.7037 78.6364 75.7293 78.6097 75.7531C78.5079 75.8486 78.402 75.9462 78.3168 76.0459C78.2753 76.0875 78.2379 76.1332 78.2005 76.1789C78.0601 76.3814 77.9331 76.593 77.8205 76.8123C77.7893 76.8746 77.7623 76.9369 77.7332 76.9971C77.7332 76.9971 77.7332 77.0137 77.7332 77.022C77.6896 77.1446 77.646 77.2671 77.6066 77.3938C77.5206 77.6832 77.4513 77.9772 77.3989 78.2744V78.2744C77.3989 78.3429 77.3823 78.4135 77.3781 78.4821C77.3677 78.6399 77.3573 78.7978 77.3532 78.9556C77.347 79.2418 77.3553 79.5281 77.3781 79.8134C77.3781 79.9131 77.3968 80.021 77.4093 80.1145C77.4342 80.2744 77.4612 80.4343 77.4965 80.5922C77.5602 80.9002 77.6406 81.2046 77.7374 81.5039C77.7935 81.6825 77.8599 81.857 77.9243 82.0314C77.9307 82.0506 77.9383 82.0693 77.9472 82.0875C77.9659 82.1332 77.9866 82.1789 78.0074 82.2246C78.1403 82.4946 78.2753 82.7604 78.4228 83.0159C78.5183 83.1779 78.6304 83.3316 78.7281 83.4873C78.7571 83.5309 78.7904 83.5745 78.8215 83.6182L78.8901 83.7033C79.0939 83.9469 79.3116 84.1785 79.5422 84.397C79.6128 84.4634 79.6876 84.5216 79.7603 84.5839C80.2317 84.0708 80.8426 83.7065 81.5181 83.5357C82.1936 83.3648 82.9044 83.395 83.563 83.6223C84.2674 83.8732 84.8782 84.3336 85.3133 84.9417C85.7484 85.5498 85.987 86.2765 85.9971 87.0242C85.9989 87.1191 85.9898 87.2138 85.9701 87.3067C85.9047 87.9905 85.6549 88.6437 85.2473 89.1966C86.7987 92.7647 89.3782 95.9256 92.3087 98.4137C95.3409 100.983 99.2661 103.112 103.316 103.286C105.163 103.403 107.003 102.969 108.604 102.04C110.525 100.883 111.979 98.9641 113.21 97.1448C114.659 95.0453 115.666 92.6733 116.17 90.1727C116.683 87.6805 116.803 85.1239 117.034 82.5922C117.241 80.2578 117.677 77.9795 118.095 75.6762C118.384 74.0854 118.51 72.5609 117.995 71.0428C117.92 70.8521 117.897 70.6449 117.93 70.4425C117.962 70.2402 118.048 70.0501 118.178 69.8922C117.986 69.5655 117.822 69.2229 117.688 68.8683C117.518 69.0966 117.276 69.26 117 69.3314C116.355 69.51 115.459 69.1113 115.339 68.3927C114.882 65.4289 113.698 62.6246 111.891 60.2306L111.869 60.2016L111.746 60.0458L111.538 59.7903C111.364 59.5827 111.187 59.375 111.005 59.1797C110.94 59.1091 110.87 59.0427 110.797 58.972C110.73 60.6201 110.324 62.2368 109.607 63.7219C108.889 65.207 107.874 66.5288 106.624 67.6056C105.733 68.3716 104.752 69.0258 103.702 69.5537C103.882 69.7742 103.992 70.0424 104.021 70.3251C104.049 70.6079 103.994 70.8928 103.862 71.1445C103.505 71.8237 102.656 71.9317 102.022 71.6284L101.833 71.5391L101.725 71.4976C101.561 71.4436 101.399 71.3855 101.231 71.3398C101.063 71.2941 100.905 71.2567 100.739 71.2255C100.691 71.2255 100.641 71.2089 100.591 71.2006H100.548C100.246 71.2006 99.9494 71.1653 99.6483 71.1819C99.6067 71.1819 99.3554 71.2089 99.318 71.2089C99.2184 71.2255 99.1104 71.2401 99.0211 71.2608C98.7396 71.3185 98.4621 71.3941 98.1903 71.4872C98.0802 71.5246 97.9826 71.5661 97.8684 71.6077C97.8248 71.6305 97.6254 71.7198 97.5922 71.7385C97.3678 71.8511 97.1495 71.9751 96.938 72.1103C96.8217 72.185 96.7095 72.2681 96.5953 72.345L96.5766 72.3595L96.4707 72.4467C95.8912 72.9306 95.1436 72.9763 94.5662 72.4467C94.0636 71.9857 94.0241 70.9929 94.5662 70.5443C94.6721 70.4571 94.7739 70.374 94.8881 70.2889C94.5911 70.2079 94.2983 70.1165 94.0054 70.0168C91.7957 71.7697 89.2515 72.9576 86.3688 73.0449C86.0259 73.5425 85.5564 73.9396 85.0088 74.1951C84.4611 74.4507 83.8552 74.5555 83.2535 74.4987C83.1314 74.7868 82.9109 75.0223 82.6313 75.163C82.3517 75.3037 82.0313 75.3406 81.727 75.2671V75.2671ZM111.939 78.6109C110.203 78.6109 110.207 75.9109 111.939 75.9109C113.671 75.9109 113.671 78.6109 111.939 78.6109ZM110.07 69.8424C111.038 69.1881 112.354 68.9265 113.509 68.9285C114.82 68.9285 116.267 69.3439 116.955 70.5609C117.129 70.8706 117.176 71.2357 117.086 71.5793C116.996 71.923 116.776 72.2183 116.473 72.4031C116.164 72.5793 115.798 72.6275 115.454 72.5375C115.109 72.4474 114.814 72.2263 114.631 71.9213L114.606 71.8777C114.585 71.8593 114.566 71.8399 114.548 71.8195V71.8195L114.465 71.7801L114.367 71.7468C114.274 71.7161 114.18 71.6905 114.085 71.67L113.985 71.6492C113.777 71.6347 113.592 71.6201 113.391 71.6243C113.27 71.6243 113.148 71.6347 113.025 71.6451H112.93C112.722 71.6845 112.498 71.7261 112.286 71.7842C112.184 71.8133 112.078 71.8424 111.985 71.8777L111.904 71.9067C111.763 72.0044 111.576 72.0667 111.432 72.1643C110.809 72.5796 109.964 72.2598 109.59 71.6804C109.164 71.0469 109.486 70.237 110.06 69.8424H110.07ZM106.089 85.4894C106.246 85.4894 106.406 85.4894 106.564 85.4894C106.602 85.4894 106.849 85.4645 106.888 85.4666C107.004 85.4487 107.119 85.4245 107.233 85.3939C107.291 85.3773 107.611 85.2257 107.405 85.3399L107.549 85.2672V85.2526C107.588 85.13 107.579 84.9972 107.524 84.8809C107.272 84.208 106.753 83.6493 106.442 83.0117C106.164 82.4317 105.944 81.8258 105.785 81.2028C105.371 79.5011 105.236 77.7432 105.387 75.9982C105.449 75.2692 105.952 74.6523 106.732 74.6523C107.414 74.6523 108.141 75.2754 108.078 75.9982C108.028 76.6539 108.018 77.3122 108.049 77.9691C108.062 78.2703 108.08 78.5735 108.107 78.8746C108.124 79.0408 108.141 79.2069 108.161 79.3731C108.161 79.4188 108.205 79.6368 108.205 79.6347C108.305 80.2893 108.477 80.9308 108.718 81.5475C108.718 81.5475 108.843 81.8051 108.861 81.8383C108.94 81.992 109.029 82.1394 109.121 82.2869C109.343 82.6462 109.584 82.993 109.771 83.371C110.207 84.2475 110.44 85.2132 110.08 86.1602C109.457 87.8093 107.673 88.2163 106.084 88.1935C104.344 88.1561 104.346 85.4645 106.078 85.4894H106.089ZM101.333 90.5902H109.64C109.875 90.5943 110.105 90.6593 110.308 90.779C110.511 90.8986 110.679 91.0688 110.796 91.2728C110.913 91.4768 110.975 91.7077 110.977 91.943C110.978 92.1783 110.918 92.4099 110.803 92.6151C110.412 93.3353 109.965 94.0234 109.466 94.6733C108.681 95.7117 107.771 96.7771 106.575 97.34C105.274 97.963 103.92 97.7886 102.747 96.9703C101.181 95.8779 99.9349 94.2475 98.9795 92.6089C98.9587 92.5676 98.94 92.5253 98.9234 92.4822C98.9234 92.4614 98.9027 92.4427 98.8944 92.422C98.8861 92.4012 98.8632 92.3285 98.8508 92.2828C98.8358 92.2324 98.824 92.181 98.8154 92.1291C98.8143 92.1098 98.8143 92.0904 98.8154 92.071C98.8068 92.0243 98.8013 91.9771 98.7988 91.9298C98.8011 91.8151 98.8186 91.7013 98.8508 91.5912V91.5912C98.8703 91.5199 98.896 91.4504 98.9276 91.3835C98.9484 91.3379 98.9754 91.2963 99.0003 91.2527C99.0252 91.2091 99.0252 91.207 99.0397 91.1862C99.1454 91.0184 99.2873 90.8765 99.4551 90.7709C99.4989 90.7482 99.544 90.7281 99.5901 90.7106L99.6379 90.6899C99.6854 90.6711 99.7339 90.6552 99.7833 90.6421C99.8338 90.6281 99.8851 90.617 99.937 90.6089H99.9847C100.034 90.601 100.084 90.5961 100.134 90.5943L101.333 90.5902ZM99.2287 76.0231C100.963 76.0231 100.961 78.723 99.2287 78.723C97.4966 78.723 97.4863 76.0231 99.2184 76.0231H99.2287Z" fill="white"/>
<path d="M88.0344 50.5836C87.4803 50.6644 86.9332 50.7872 86.3978 50.9511C85.9672 51.0754 85.5498 51.2416 85.1517 51.4475C84.2908 51.865 83.4982 52.4105 82.8007 53.0654C80.1797 55.4932 78.647 59.2046 78.2316 62.6314C78.1141 63.5959 78.069 64.5678 78.0966 65.539C78.1095 66.3807 78.202 67.2194 78.3728 68.0437C78.7259 69.7904 79.2036 71.0406 80.242 72.457C80.9817 72.4305 81.7218 72.5003 82.4435 72.6647C83.3926 72.8724 83.5816 73.7925 83.2742 74.4841C83.8759 74.5409 84.4818 74.4361 85.0294 74.1805C85.5771 73.9249 86.0466 73.5279 86.3895 73.0303C86.0531 73.0303 85.7145 73.0302 85.3698 73.0178C83.646 72.9139 83.6397 70.2223 85.3698 70.3179C86.9296 70.4234 88.4901 70.1206 89.8973 69.4394C92.5973 68.1247 94.7468 65.8526 96.5017 63.4559C98.3231 60.9637 99.8247 58.2638 101.189 55.514C101.962 53.9605 104.282 55.325 103.513 56.8723C102.718 58.4756 101.879 60.0582 100.957 61.593C99.6876 63.701 98.1508 65.9315 96.3377 67.8568C97.5223 68.1407 98.7519 68.1838 99.9535 67.9835C101.719 67.6457 103.365 66.8532 104.73 65.6844C107.212 63.5639 108.656 60.2181 108.003 56.9616C107.86 56.2471 108.211 55.5078 108.944 55.3001C109.235 55.228 109.541 55.2528 109.816 55.3707C109.998 55.2875 110.197 55.252 110.396 55.2676C110.595 55.2832 110.787 55.3495 110.953 55.46C112.168 56.4024 113.243 57.5121 114.147 58.756C116.122 61.366 117.424 64.4225 117.937 67.6553C117.977 67.8608 117.975 68.0721 117.932 68.2768C117.889 68.4815 117.805 68.6755 117.686 68.8475C117.82 69.2021 117.984 69.5446 118.176 69.8714C118.308 69.7238 118.468 69.6046 118.647 69.5212C118.827 69.4378 119.021 69.3919 119.219 69.3863C119.417 69.3806 119.613 69.4154 119.797 69.4885C119.981 69.5615 120.148 69.6713 120.288 69.8111C120.319 69.2774 120.344 68.7415 120.359 68.2078C120.05 68.3732 119.691 68.4184 119.351 68.3345C119.01 68.2324 118.722 68.0025 118.547 67.6929C118.372 67.3832 118.323 67.0178 118.411 66.673C119.011 63.6968 118.5 60.6127 117.189 57.8899C116.062 55.5998 114.55 53.5198 112.72 51.7404C111.09 50.1246 109.328 48.6915 107.216 47.7362C102.439 45.5741 96.4021 45.9958 92.0739 48.9449C91.4695 49.3603 90.5806 49.057 90.2317 48.4631C90.0664 48.1797 90.0158 47.8438 90.0905 47.5243C89.5892 47.7445 89.1158 48.0234 88.6803 48.3551C88.8191 48.5071 88.9195 48.6901 88.9731 48.8888C89.1517 49.568 88.755 50.4756 88.0344 50.5836Z" fill="white"/>
<path d="M163.996 132.478V132.538H164.141C164.091 132.521 164.043 132.501 163.996 132.478V132.478Z" fill="white"/>
<path d="M118.363 170.25C117.969 170.682 117.513 171.053 117.011 171.353C116.454 171.702 115.792 171.842 115.142 171.748C114.847 172.289 114.43 172.755 113.925 173.108C113.476 173.443 112.933 173.626 112.373 173.631C112.236 174.369 111.852 175.038 111.283 175.527H116.807L117.985 171.521C118.111 171.1 118.237 170.677 118.363 170.25Z" fill="white"/>
<path d="M80.0802 99.9568C80.001 99.8772 79.9313 99.7887 79.8725 99.6931C78.6334 97.669 76.8578 96.0278 74.7426 94.9516C74.4447 94.9024 74.1505 94.833 73.862 94.7439C73.1555 94.5205 72.4894 94.1853 71.889 93.7511C70.1264 93.2039 68.303 92.8767 66.4601 92.7771C67.5215 94.6551 68.7916 96.4073 70.2462 98.0004C72.1811 100.059 74.577 101.628 77.2369 102.58C77.5962 102.312 77.997 102.081 78.2982 101.87L80.0988 100.607C80.0495 100.394 80.0431 100.173 80.0802 99.9568V99.9568Z" fill="#00A0E9"/>
<path d="M74.7156 111.126C75.0395 109.683 75.3622 108.239 75.6834 106.794C75.7976 106.277 75.8911 105.755 76.0011 105.224C73.6265 105.186 71.2703 105.647 69.0852 106.578C67.1776 107.453 65.3907 108.569 63.7684 109.901C65.197 110.56 66.679 111.096 68.1984 111.504C70.3592 112.038 72.631 111.907 74.7156 111.126V111.126Z" fill="#00A0E9"/>
<path d="M107.223 85.3899C107.109 85.4205 106.994 85.4447 106.878 85.4625C106.838 85.4625 106.591 85.4833 106.554 85.4854C106.396 85.4854 106.236 85.4854 106.078 85.4854C104.346 85.4605 104.344 88.1521 106.078 88.1749C107.667 88.1978 109.449 87.7907 110.074 86.1417C110.433 85.1946 110.201 84.2289 109.765 83.3524C109.578 82.9745 109.337 82.6276 109.115 82.2683C109.023 82.1209 108.934 81.9734 108.855 81.8197C108.836 81.7865 108.718 81.5331 108.712 81.529C108.471 80.9123 108.299 80.2707 108.199 79.6162C108.199 79.6162 108.166 79.4085 108.155 79.3545C108.134 79.1883 108.118 79.0222 108.101 78.856C108.074 78.5549 108.055 78.2517 108.043 77.9505C108.012 77.2936 108.022 76.6353 108.072 75.9796C108.134 75.2527 107.407 74.6338 106.726 74.6338C105.945 74.6338 105.443 75.2568 105.38 75.9796C105.23 77.7246 105.365 79.4825 105.779 81.1842C105.938 81.8073 106.158 82.4131 106.436 82.9932C106.747 83.6391 107.266 84.1977 107.518 84.8623C107.573 84.9786 107.581 85.1115 107.542 85.2341V85.2341V85.2486L107.399 85.3213C107.601 85.2216 107.281 85.3732 107.223 85.3899ZM107.559 85.2362C107.601 85.1697 107.64 85.1905 107.559 85.2362V85.2362ZM107.559 85.2362C107.64 85.2029 107.611 85.2216 107.559 85.2507V85.2362Z" fill="#2E2E2E"/>
<path d="M114.388 71.7509H114.353L114.451 71.7842H114.428L114.388 71.7509Z" fill="#2E2E2E"/>
<path d="M113.499 68.9285C112.348 68.9285 111.027 69.1881 110.06 69.8423C109.476 70.2369 109.165 71.0469 109.576 71.6845C109.95 72.2639 110.795 72.5879 111.418 72.1684C111.561 72.0708 111.748 72.0084 111.889 71.9108L111.97 71.8818C112.07 71.8465 112.178 71.8174 112.271 71.7883C112.479 71.7302 112.699 71.6886 112.915 71.6491H113.011C113.133 71.6491 113.256 71.6305 113.376 71.6284C113.584 71.6284 113.773 71.6388 113.97 71.6533L114.07 71.6741C114.166 71.6946 114.26 71.7202 114.353 71.7509C114.209 71.6969 114.319 71.7218 114.402 71.7634H114.427L114.517 71.7966L114.448 71.7738L114.531 71.8132C114.549 71.8336 114.569 71.8531 114.589 71.8714L114.614 71.915C114.798 72.22 115.093 72.4411 115.437 72.5312C115.781 72.6212 116.147 72.573 116.456 72.3968C116.76 72.212 116.979 71.9167 117.069 71.573C117.159 71.2294 117.112 70.8643 116.938 70.5546C116.257 69.3521 114.809 68.9285 113.499 68.9285ZM111.813 71.9378L111.885 71.9129C111.792 71.9565 111.626 72.0147 111.813 71.9378ZM114.627 71.8755C114.635 71.8815 114.642 71.8893 114.647 71.8984C114.647 71.8984 114.631 71.8797 114.627 71.8755V71.8755Z" fill="#2E2E2E"/>
<path d="M111.939 78.6107C113.671 78.6107 113.673 75.9108 111.939 75.9108C110.205 75.9108 110.203 78.6107 111.939 78.6107Z" fill="#2E2E2E"/>
<path d="M99.2186 76.0232C97.4865 76.0232 97.4844 78.7231 99.2186 78.7231C100.953 78.7231 100.953 76.0232 99.2186 76.0232Z" fill="#2E2E2E"/>
<path d="M98.8011 92.1354C98.8096 92.1873 98.8214 92.2386 98.8363 92.2891C98.8488 92.3348 98.8634 92.3805 98.88 92.4282C98.8966 92.476 98.8986 92.4677 98.909 92.4885C98.9256 92.5316 98.9443 92.5739 98.9651 92.6152C99.9205 94.2559 101.167 95.8862 102.733 96.9766C103.906 97.7948 105.26 97.961 106.56 97.3462C107.756 96.7834 108.666 95.7118 109.451 94.6796C109.95 94.0297 110.398 93.3415 110.789 92.6214C110.904 92.4161 110.963 92.1845 110.962 91.9493C110.961 91.714 110.899 91.4831 110.781 91.2791C110.664 91.075 110.496 90.9049 110.294 90.7853C110.091 90.6656 109.861 90.6006 109.626 90.5964H101.318H100.122C100.072 90.5982 100.022 90.603 99.9724 90.611H99.9246C99.8728 90.6191 99.8215 90.6302 99.7709 90.6442C99.7216 90.6573 99.6731 90.6733 99.6256 90.692L99.5778 90.7128C99.5317 90.7302 99.4866 90.7503 99.4428 90.773C99.275 90.8786 99.1331 91.0206 99.0274 91.1883C99.0129 91.2091 99.0025 91.232 98.9879 91.2548C98.9734 91.2777 98.936 91.34 98.9153 91.3857C98.8836 91.4525 98.8579 91.522 98.8384 91.5933V91.5933C98.8062 91.7034 98.7888 91.8172 98.7865 91.9319C98.789 91.9793 98.7945 92.0264 98.8031 92.0731C98.8012 92.0938 98.8005 92.1146 98.8011 92.1354V92.1354ZM104.811 95.0555C104.811 95.043 104.847 95.0555 104.886 95.0555H104.811ZM107.148 93.2881C107.102 93.3462 107.05 93.4106 107.036 93.4314C106.942 93.5435 106.847 93.6557 106.751 93.7636C106.581 93.9568 106.402 94.1416 106.218 94.3182C106.114 94.4158 106.01 94.5072 105.898 94.6048L105.883 94.6152L105.756 94.7086C105.659 94.7751 105.561 94.8374 105.459 94.8935C105.358 94.9495 105.277 94.9807 105.27 94.9848C105.198 95.0056 105.123 95.0264 105.052 95.0534H104.976H104.928C104.846 95.0238 104.762 95.0015 104.676 94.9869H104.666C104.639 94.9745 104.61 94.962 104.585 94.9475C104.473 94.8872 104.363 94.827 104.255 94.7585C104.147 94.6899 104.085 94.6359 103.997 94.5799C103.962 94.5446 103.918 94.5134 103.881 94.4822C103.673 94.2974 103.466 94.1001 103.258 93.8966C103.05 93.693 102.917 93.529 102.755 93.34L102.706 93.2777L107.148 93.2881Z" fill="#2E2E2E"/>
<path d="M115.387 50.654C113.63 48.764 111.551 46.9613 109.248 45.7692C106.595 44.4241 103.659 43.73 100.685 43.7442C97.1831 43.7442 93.6234 44.6705 90.7158 46.6518C90.4018 46.8639 90.1794 47.1865 90.0927 47.5553C90.6497 47.3093 91.2513 47.1807 91.8601 47.1773C91.2513 47.1807 90.6497 47.3093 90.0927 47.5553C90.0181 47.8747 90.0687 48.2106 90.234 48.494C90.5829 49.088 91.4801 49.3871 92.0761 48.9758C96.4043 46.0267 102.46 45.6051 107.219 47.7671C109.331 48.7225 111.092 50.1555 112.722 51.7713C114.552 53.5507 116.064 55.6307 117.192 57.9209C118.502 60.6437 119.013 63.7361 118.413 66.7039C118.325 67.0488 118.374 67.4142 118.549 67.7238C118.724 68.0335 119.013 68.2634 119.354 68.3654C119.693 68.4493 120.052 68.4041 120.361 68.2387C120.39 67.1027 120.392 65.9853 120.392 64.949C120.392 65.9874 120.392 67.1027 120.361 68.2387C120.523 68.1604 120.665 68.0468 120.777 67.9063C120.889 67.7658 120.968 67.6019 121.009 67.4267C122.27 61.1691 119.607 55.1919 115.387 50.654Z" fill="#2E2E2E"/>
<path d="M13.9196 175.532C9.89261 175.532 5.8552 175.455 1.82816 175.532C1.65163 175.532 1.47509 175.532 1.30063 175.532C-0.431467 175.532 -0.435621 178.232 1.30063 178.232H21.5168V175.532H13.9196Z" fill="#2E2E2E"/>
<path d="M120.589 70.3304C120.526 70.1463 120.424 69.9778 120.29 69.8361C120.261 70.3366 120.226 70.833 120.176 71.3231C120.401 71.3685 120.63 71.3935 120.859 71.3979C120.795 71.036 120.705 70.6792 120.589 70.3304V70.3304Z" fill="#2E2E2E"/>
<path d="M118.178 69.8963C118.385 70.2667 118.672 70.5867 119.017 70.8334C119.363 71.0801 119.758 71.2473 120.176 71.3231C120.226 70.833 120.261 70.3366 120.29 69.8361C120.15 69.6963 119.983 69.5865 119.8 69.5134C119.616 69.4404 119.419 69.4056 119.221 69.4112C119.023 69.4169 118.829 69.4628 118.65 69.5462C118.47 69.6296 118.31 69.7488 118.178 69.8963V69.8963Z" fill="#2E2E2E"/>
<path d="M82.938 91.5953L83.019 90.8664C83.019 90.8456 83.019 90.8269 83.019 90.8082L82.913 90.5798C82.1902 90.6778 81.4543 90.5668 80.7925 90.2599C80.1662 89.9557 79.6437 89.473 79.291 88.8726C78.9941 88.3671 78.8252 87.7967 78.7988 87.2111C78.3167 86.9083 77.8701 86.5523 77.4675 86.1498C77.4176 86.1 77.3636 86.0563 77.3138 86.0044C76.3633 84.9854 75.6411 83.7754 75.1954 82.4551C75.0272 82.4551 74.859 82.4551 74.6907 82.48H74.6097H74.5807L74.2359 82.5444C74.0282 82.5921 73.8018 82.6503 73.59 82.7188C73.4882 82.7521 73.3823 82.7915 73.2888 82.8268C73.2771 82.835 73.2646 82.842 73.2515 82.8476C73.077 82.9431 72.8984 83.0304 72.7281 83.1384C72.6471 83.1882 72.5703 83.2484 72.4893 83.3003L72.4747 83.3149C72.3377 83.4416 72.1985 83.562 72.0594 83.6991C71.9971 83.7656 71.941 83.8383 71.8787 83.9068C71.7021 84.1789 71.5505 84.4509 71.401 84.7375V84.7521C71.3761 84.8268 71.347 84.8995 71.3221 84.9743C71.2743 85.1238 71.2307 85.2754 71.1933 85.4291C71.1559 85.5828 71.131 85.7448 71.0999 85.9047C71.0999 85.9816 71.0853 86.0605 71.0791 86.1373C71.0552 86.4768 71.0552 86.8176 71.0791 87.1571C71.0791 87.2485 71.0978 87.3398 71.104 87.4333C71.1351 87.5891 71.158 87.7469 71.1933 87.9048C71.2707 88.2574 71.372 88.6043 71.4965 88.9432C71.5256 89.0221 71.5568 89.101 71.5879 89.18V89.2007C71.6627 89.3503 71.7312 89.5019 71.8122 89.6493C71.9763 89.9567 72.1736 90.2371 72.3647 90.5278L72.3771 90.5403C72.4311 90.6026 72.4809 90.667 72.537 90.7293C72.645 90.8518 72.7572 90.9702 72.8735 91.0865C72.9898 91.2028 73.1393 91.3191 73.2681 91.4416C73.3283 91.4832 73.3865 91.5289 73.4488 91.5704C73.5941 91.668 73.7458 91.7594 73.8995 91.8446C73.9576 91.8757 74.1487 91.9671 74.2276 92.0066L74.3647 92.0606L74.6014 92.1374C74.7614 92.1852 74.9254 92.2267 75.0895 92.2599L75.2619 92.289H75.3699C75.5485 92.289 75.725 92.3056 75.9036 92.3035C76.0822 92.3015 76.2671 92.2828 76.4478 92.2641L76.5246 92.2516C76.6201 92.2329 76.7178 92.2142 76.8133 92.1914C77.021 92.1416 77.2432 92.0813 77.455 92.0128C77.5547 91.9796 77.6627 91.9422 77.7562 91.9048L77.9639 91.8217L78.211 91.7054C78.3169 91.6535 78.4187 91.5995 78.5267 91.5434C78.7344 91.425 78.9587 91.2983 79.1705 91.1675C79.2324 91.1295 79.2977 91.0975 79.3657 91.072C80.6243 90.5195 81.6939 92.2246 80.859 93.2028C81.6994 92.891 82.4247 92.3302 82.938 91.5953V91.5953Z" fill="white"/>
<path d="M256.779 189.413L256.79 189.439L256.779 189.413Z" fill="white"/>
<path d="M256.803 189.414C256.83 189.326 256.784 189.314 256.775 189.362L256.803 189.414Z" fill="white"/>
<path d="M117.939 67.6802C117.426 64.4474 116.124 61.3909 114.149 58.7808C113.245 57.5369 112.17 56.4273 110.955 55.4849C110.789 55.3743 110.597 55.3081 110.398 55.2924C110.199 55.2768 110 55.3123 109.819 55.3956C109.543 55.2776 109.237 55.2529 108.946 55.3249C108.203 55.5326 107.862 56.2658 108.006 56.9864C108.658 60.2492 107.214 63.595 104.732 65.7093C103.367 66.8781 101.721 67.6705 99.9557 68.0083C98.7541 68.2086 97.5245 68.1656 96.3399 67.8816C98.153 65.9564 99.6898 63.7279 100.959 61.6178C101.881 60.083 102.72 58.5025 103.515 56.8971C104.284 55.3499 101.964 53.9895 101.191 55.5389C99.8248 58.2928 98.3253 60.9969 96.5039 63.4808C94.749 65.8775 92.5994 68.1496 89.8995 69.4642C88.4923 70.1455 86.9318 70.4482 85.372 70.3427C83.6419 70.2389 83.6482 72.9305 85.372 73.0426C85.7167 73.0634 86.0553 73.0655 86.3917 73.0551C86.8154 72.4073 87.0327 71.6462 87.0148 70.8723C87.0327 71.6462 86.8154 72.4073 86.3917 73.0551C89.2744 72.9679 91.8185 71.7799 94.0283 70.0271C94.3211 70.1267 94.614 70.2181 94.911 70.2991C94.803 70.3843 94.7033 70.4673 94.5891 70.5546C94.047 71.0073 94.0865 71.9959 94.5891 72.457C95.1664 72.9866 95.9141 72.9409 96.4935 72.457L96.5995 72.3697L96.6182 72.3552C96.7324 72.2784 96.8445 72.1953 96.9608 72.1205C97.1723 71.9854 97.3907 71.8613 97.615 71.7488C97.6483 71.7301 97.8477 71.6408 97.8913 71.6179C97.9972 71.5764 98.099 71.5348 98.2132 71.4975C98.485 71.4043 98.7625 71.3287 99.0439 71.2711C99.1415 71.2503 99.2412 71.2358 99.3409 71.2192C99.3783 71.2192 99.6296 71.1942 99.6711 71.1922C99.9723 71.1756 100.269 71.2067 100.57 71.2109H100.614C100.664 71.2109 100.714 71.2254 100.761 71.2358C100.928 71.2669 101.092 71.3043 101.254 71.35C101.416 71.3957 101.584 71.4539 101.748 71.5079L101.856 71.5494L102.045 71.6387C102.668 71.9419 103.528 71.8339 103.885 71.1548C104.017 70.903 104.072 70.6181 104.043 70.3354C104.015 70.0526 103.904 69.7844 103.725 69.5639C104.775 69.036 105.756 68.3818 106.647 67.6158C107.897 66.5391 108.912 65.2172 109.63 63.7321C110.347 62.247 110.752 60.6304 110.82 58.9823C110.886 59.0508 110.957 59.1173 111.027 59.19C111.21 59.3977 111.387 59.5929 111.561 59.8006L111.769 60.056L111.891 60.2118L111.914 60.2409C113.72 62.6348 114.905 65.4391 115.362 68.4029C115.476 69.1215 116.371 69.5203 117.023 69.3417C117.299 69.2703 117.541 69.1068 117.711 68.8785C117.343 67.9398 117.088 66.8951 116.645 66.0249C117.081 66.8951 117.343 67.9398 117.711 68.8785C117.827 68.7041 117.907 68.5083 117.946 68.3025C117.985 68.0967 117.983 67.8851 117.939 67.6802V67.6802Z" fill="#2E2E2E"/>
<path d="M97.233 172.802C96.5705 173.747 95.7792 174.594 94.882 175.32C94.9879 175.32 95.0896 175.332 95.1976 175.332C96.1836 175.354 97.1695 175.285 98.1426 175.124C98.3313 175.082 98.5167 175.026 98.6971 174.956L98.8924 174.881L99.1852 174.749C99.2413 174.724 99.2953 174.695 99.3514 174.668L97.233 172.802Z" fill="white"/>
<path d="M43.9842 121.371C43.9175 121.095 43.7566 120.85 43.5293 120.679C43.3019 120.508 43.0222 120.422 42.7381 120.435H37.1305C35.2468 120.435 33.3444 120.354 31.4628 120.445C27.5167 120.638 23.8241 122.998 22.1024 126.574C21.2446 128.354 20.9746 130.221 20.9746 132.169V159.615C20.9746 162.763 20.8853 165.928 20.9746 169.077C20.9746 169.125 20.9746 169.177 20.9746 169.224C20.9671 169.43 21.0119 169.635 21.1049 169.819C21.1979 170.003 21.336 170.161 21.5063 170.277V170.277C22.2893 170.813 23.6663 170.468 23.6663 169.224V133.369C23.6663 132.586 23.6434 131.797 23.6663 131.014C23.7542 129.332 24.3497 127.715 25.3744 126.377C26.3991 125.04 27.8049 124.044 29.4067 123.521C31.3008 122.919 33.413 123.122 35.3756 123.122H42.7443C43.789 123.126 44.1981 122.148 43.9842 121.371Z" fill="#2E2E2E"/>
<path d="M83.4488 33.3602C84.3107 34.8618 86.6368 33.5077 85.7728 31.9999L77.7042 17.9479L76.5391 15.9188C75.6772 14.4172 73.3511 15.7713 74.2151 17.277L82.2837 31.3291L83.4488 33.3602Z" fill="#00A0E9"/>
<path d="M72.9337 37.2044C73.1879 37.4531 73.5293 37.5923 73.8849 37.5923C74.2405 37.5923 74.5819 37.4531 74.8361 37.2044C75.0828 36.9492 75.2207 36.6082 75.2207 36.2532C75.2207 35.8983 75.0828 35.5572 74.8361 35.302L67.5359 28.0019L66.4975 26.9634C65.9991 26.465 65.0852 26.4276 64.5951 26.9634C64.3479 27.2184 64.2097 27.5595 64.2097 27.9146C64.2097 28.2697 64.3479 28.6109 64.5951 28.8658L71.8932 36.166L72.9337 37.2044Z" fill="#00A0E9"/>
<path d="M56.462 36.1743L55.274 35.5803C54.9639 35.4084 54.5995 35.3625 54.2564 35.4522C53.9134 35.542 53.6181 35.7604 53.4319 36.0621C53.0829 36.6582 53.2637 37.5782 53.9158 37.9043L62.3042 42.0975L63.4922 42.6915C63.8023 42.8634 64.1667 42.9093 64.5098 42.8195C64.8528 42.7298 65.1481 42.5114 65.3344 42.2096C65.6833 41.6136 65.5026 40.6935 64.8504 40.3675L56.462 36.1743Z" fill="#00A0E9"/>
<path d="M91.9493 28.8678C92.0448 29.5677 92.9753 30.0122 93.6108 29.8086C94.3792 29.5594 94.6492 28.9031 94.5516 28.1471C94.2027 25.6258 93.8565 23.1045 93.5132 20.5832C93.4633 20.226 93.4156 19.8688 93.3657 19.5095C93.2681 18.8096 92.3273 18.3672 91.7042 18.5707C90.9358 18.8179 90.6658 19.4762 90.7634 20.2322C91.1123 22.7535 91.4585 25.2741 91.8018 27.7941L91.9493 28.8678Z" fill="#00A0E9"/>
<path d="M177.066 127.805C176.959 127.805 176.98 127.881 177.066 127.805V127.805Z" fill="white"/>
<path d="M112.479 107.46L111.192 106.858C111.219 107.253 111.229 107.643 111.233 108.023C111.211 110.003 111.009 111.977 110.629 113.92C110.093 116.9 109.214 119.776 108.29 122.642C107.918 123.801 107.472 124.934 106.953 126.034L106.055 127.959L102.579 135.407C102.492 135.573 102.367 135.717 102.214 135.825C102.061 135.934 101.884 136.004 101.698 136.03C101.117 136.381 100.317 136.348 99.8975 135.579L96.29 128.948C96.1114 128.618 95.9314 128.288 95.75 127.957C94.5205 125.696 93.2903 123.435 92.0595 121.174C91.1186 119.45 90.2609 117.643 89.1518 116.019L80.6658 103.479L78.8963 104.725C78.7509 105.382 78.6035 106.036 78.4581 106.692C77.3989 111.44 76.3404 116.189 75.2826 120.939C76.9918 120.052 78.7593 119.265 80.6243 118.833C83.3616 118.198 86.1944 118.335 88.9753 118.491C90.3336 118.565 90.6223 120.248 89.8393 120.912C89.5984 121.113 89.2877 121.21 88.9753 121.182C87.7292 121.112 86.4582 121.051 85.1996 121.056C86.1612 122.875 87.1498 124.68 88.1508 126.476C90.4935 130.682 92.9276 134.842 95.3866 138.975C97.3596 142.281 99.3596 145.57 101.387 148.842C101.742 149.415 102.101 149.984 102.458 150.555C102.649 150.038 102.843 149.517 103.034 149.002C105.526 142.233 107.85 135.394 109.86 128.466C110.635 125.803 111.36 123.12 111.995 120.42C111.775 120.388 111.566 120.303 111.387 120.171C110.662 119.645 110.415 118.466 111.432 117.951C113.104 117.105 115.125 117.134 116.946 117.299C117.638 117.361 118.334 117.452 119.023 117.56L112.479 107.46Z" fill="white"/>
<path d="M107.665 159.176C107.459 159.28 107.262 159.4 107.075 159.534C107.227 159.675 107.382 159.81 107.53 159.949C108.984 161.345 110.348 162.836 111.696 164.331C112.953 165.725 114.494 167.133 115.227 168.888C115.228 168.892 115.228 168.896 115.227 168.9L115.272 168.94C115.353 168.992 115.445 169.039 115.526 169.093C115.58 169.062 115.646 169.025 115.694 168.994C115.815 168.917 115.925 168.83 116.041 168.749L116.145 168.672C116.19 168.628 116.336 168.495 116.371 168.464C116.479 168.35 116.557 168.212 116.598 168.061C116.639 167.91 116.643 167.751 116.608 167.598C116.427 166.921 115.85 166.439 115.347 165.937C114.845 165.434 114.379 164.938 113.908 164.427C112.87 163.309 111.873 162.169 110.824 161.068C110.369 160.593 109.908 160.119 109.416 159.681C109.308 159.583 109.193 159.492 109.085 159.397H109.075L109.058 159.386C108.978 159.341 108.901 159.291 108.826 159.237C108.553 159.14 108.266 159.093 107.976 159.1C107.947 159.1 107.819 159.129 107.785 159.139C107.659 159.172 107.864 159.079 107.665 159.176Z" fill="white"/>
<path d="M112.143 170.873C112.176 170.894 112.211 170.91 112.246 170.929L112.317 170.946C112.367 170.91 112.421 170.877 112.473 170.844C112.485 170.827 112.641 170.703 112.681 170.661C112.72 170.62 112.732 170.605 112.759 170.576C112.764 170.569 112.768 170.562 112.774 170.555C112.791 170.529 112.806 170.501 112.82 170.472C112.826 170.442 112.834 170.413 112.845 170.385V170.385C112.836 170.333 112.836 170.281 112.845 170.229C112.845 170.202 112.845 170.175 112.83 170.159C112.78 169.999 112.766 169.93 112.739 169.872C112.56 169.489 112.336 169.129 112.07 168.8C111.088 167.554 109.949 166.391 108.876 165.218C107.802 164.044 106.658 162.819 105.472 161.697C105.227 161.465 104.977 161.234 104.72 161.012L104.4 160.742L104.329 160.682L104.294 160.657C104.153 160.555 103.999 160.47 103.854 160.377C103.681 160.397 103.511 160.426 103.337 160.441L103.004 160.47L102.861 160.497C102.682 160.546 102.507 160.61 102.338 160.688L103.466 161.911C104.155 162.628 104.853 163.336 105.542 164.059L110.303 169.295C110.529 169.521 110.753 169.749 110.99 169.968C111.243 170.209 111.51 170.435 111.79 170.645C111.895 170.734 112.02 170.807 112.143 170.873Z" fill="white"/>
<path d="M109.736 173.262L109.721 173.287C109.721 173.293 109.721 173.299 109.721 173.305C109.727 173.291 109.732 173.277 109.736 173.262V173.262Z" fill="white"/>
<path d="M109.706 172.869C109.611 172.639 109.706 172.792 109.596 172.614C109.447 172.374 109.27 172.153 109.069 171.955C108.575 171.426 108.093 170.882 107.615 170.346L103.634 165.97C102.4 164.659 101.187 163.27 99.8247 162.082C99.807 162.067 99.7916 162.05 99.779 162.03C99.75 162.047 99.7105 162.063 99.6627 162.09C99.3242 162.279 98.9483 162.383 98.6077 162.595L98.5641 162.624L98.6119 162.676C100.419 164.529 102.23 166.377 104.045 168.221C104.816 169.008 105.585 169.795 106.352 170.583C107.223 171.48 108.059 172.402 108.292 173.642C108.495 173.7 108.704 173.729 108.915 173.729H109.088L109.119 173.719C109.183 173.7 109.364 173.631 109.376 173.636L109.547 173.54C109.592 173.494 109.675 173.395 109.7 173.368C109.725 173.341 109.713 173.343 109.721 173.328C109.663 173.393 109.706 173.345 109.736 173.297C109.743 173.276 109.749 173.254 109.754 173.233C109.755 173.218 109.755 173.204 109.754 173.189C109.754 173.189 109.754 173.062 109.754 173.002C109.754 172.942 109.713 172.886 109.706 172.869Z" fill="white"/>
<path d="M105.501 173.716C105.265 173.345 104.981 173.006 104.656 172.709C104.114 172.163 103.582 171.604 103.044 171.048C101.582 169.552 100.119 168.06 98.6557 166.57C98.0035 165.905 97.3521 165.239 96.7013 164.572C96.3109 164.173 95.5175 163.029 94.9568 163.05C94.477 163.068 93.9391 163.617 93.5778 163.895C93.0482 164.31 92.5227 164.713 91.9869 165.108C91.1564 165.746 90.2661 166.303 89.3285 166.769C87.6129 167.601 85.7269 168.02 83.8207 167.995C81.5964 167.92 79.37 167.752 77.1477 167.625C75.5195 168.474 74.0158 169.592 72.9628 171.12C72.2152 172.229 71.6709 173.462 71.3553 174.761L73.1352 174.807L85.5964 175.127C86.5206 175.15 87.4656 175.228 88.3877 175.197C91.1291 175.102 93.6941 173.264 95.1832 170.994L92.7366 168.917C92.6105 168.792 92.5107 168.644 92.4429 168.48C92.3751 168.316 92.3408 168.141 92.342 167.964C92.3436 167.607 92.4853 167.265 92.7366 167.012C92.9902 166.762 93.3315 166.62 93.6878 166.618C94.0427 166.627 94.3815 166.768 94.639 167.012L95.0149 167.332L97.6546 169.573C97.7066 169.622 97.7539 169.675 97.7958 169.733C97.8104 169.746 97.8312 169.756 97.8457 169.77L100.708 172.281L102.369 173.735C102.496 173.845 102.631 173.943 102.749 174.067C102.942 174.289 103.151 174.497 103.372 174.691C103.475 174.756 103.582 174.815 103.692 174.867L103.788 174.904C103.871 174.931 103.956 174.952 104.041 174.977L104.12 175H104.13C104.293 175.012 104.456 175.012 104.618 175C104.654 174.988 104.892 174.948 104.942 174.938C104.992 174.927 105.123 174.867 105.15 174.859C105.177 174.85 105.231 174.819 105.268 174.796C105.306 174.774 105.345 174.747 105.383 174.722C105.42 174.697 105.464 174.653 105.486 174.63L105.543 174.564L105.594 174.481C105.607 174.443 105.632 174.375 105.653 174.313C105.673 174.25 105.653 174.207 105.653 174.163C105.653 174.119 105.653 174.132 105.642 174.109C105.635 173.967 105.586 173.831 105.501 173.716V173.716Z" fill="white"/>
<path d="M112.124 181.864C113.125 182.117 113.678 182.248 114.616 182.25H114.886C114.914 182.079 114.952 181.909 115 181.741L115.1 181.403H110.298L112.124 181.864Z" fill="#E7E7E7"/>
<path d="M209.313 135.23C209.3 135.232 209.287 135.232 209.273 135.23C209.444 135.359 209.434 135.188 209.313 135.23Z" fill="#E7E7E7"/>
<path d="M208 135.23H163.996H137.8L137.819 135.282L137.8 135.23H131.865C131.391 135.23 131.372 135.498 131.241 135.926C130.198 139.482 129.154 143.037 128.11 146.593L127.624 148.254C127.624 148.286 127.607 148.312 127.599 148.342L123.001 164.02L118.639 178.882L117.648 182.257H195.759C196.1 182.23 196.343 180.62 196.405 180.388L199.936 167.544L204.798 149.854L208.43 136.638C208.559 136.167 208.69 135.698 208.818 135.226L208 135.23ZM169.383 164.813C168.853 165.425 168.152 165.863 167.371 166.072C166.589 166.28 165.763 166.249 164.999 165.982C164.208 165.698 163.523 165.178 163.036 164.493C162.548 163.808 162.282 162.991 162.272 162.151C162.297 160.302 163.616 158.524 165.487 158.188C166.316 158.021 167.176 158.114 167.951 158.453C168.726 158.793 169.377 159.362 169.817 160.084C170.242 160.821 170.429 161.671 170.351 162.518C170.274 163.364 169.935 164.166 169.383 164.813V164.813Z" fill="#E7E7E7"/>
<path d="M117.048 182.252C117.082 182.235 117.121 182.228 117.159 182.232C117.14 182.226 117.12 182.224 117.101 182.228C117.081 182.232 117.063 182.24 117.048 182.252V182.252Z" fill="#E7E7E7"/>
<path d="M81.6191 86.5534C81.6402 86.5345 81.6549 86.5177 81.6696 86.503C81.6703 86.4981 81.6703 86.4932 81.6696 86.4883C81.6538 86.5108 81.637 86.5325 81.6191 86.5534V86.5534Z" fill="white"/>
<path d="M81.9106 87.8202L81.8602 87.7677H81.8455L81.9106 87.8202Z" fill="white"/>
<path d="M81.7752 86.3782C81.7752 86.3595 81.7315 86.397 81.6877 86.4617L81.6772 86.4825C81.7044 86.4533 81.7294 86.422 81.7586 86.3949L81.7752 86.3782Z" fill="white"/>
<path d="M81.7417 87.6638C81.7229 87.6638 81.7604 87.7076 81.8251 87.7493L81.8459 87.7618L81.7583 87.6805L81.7417 87.6638Z" fill="white"/>
<path d="M83.0271 87.6974C83.0271 87.7162 83.0688 87.6786 83.1126 87.614L83.1251 87.5931L83.0438 87.6807L83.0271 87.6974Z" fill="white"/>
<path d="M81.6876 87.6118L81.7416 87.6638C81.785 87.6936 81.8248 87.7284 81.86 87.7676C81.9269 87.8091 81.9962 87.8466 82.0677 87.8798C82.1362 87.9026 82.2068 87.9213 82.2753 87.9379C82.3577 87.9421 82.4402 87.9421 82.5225 87.9379C82.5931 87.9213 82.6637 87.9026 82.7302 87.8798C82.8124 87.8418 82.8921 87.7988 82.969 87.751L83.0209 87.697C83.0507 87.6536 83.0856 87.6138 83.1248 87.5786C83.1658 87.5114 83.2033 87.4421 83.2369 87.3709C83.2604 87.2987 83.2799 87.2252 83.2951 87.1508C83.2951 87.1134 83.2951 87.0739 83.2951 87.0345C83.2951 86.995 83.2951 86.9576 83.2951 86.9203C83.2799 86.8458 83.2604 86.7723 83.2369 86.7001C83.1994 86.6177 83.1564 86.5379 83.1082 86.4613L83.0542 86.4094C83.0103 86.3792 82.9706 86.3436 82.9358 86.3034C82.8693 86.2619 82.7987 86.2266 82.7281 86.1913L82.5204 86.1352C82.4381 86.131 82.3556 86.131 82.2733 86.1352C82.2026 86.1518 82.13 86.1705 82.0656 86.1913C81.9836 86.2303 81.9038 86.274 81.8267 86.3221L81.7748 86.3761C81.7447 86.4199 81.7091 86.4597 81.6689 86.4945C81.6274 86.5609 81.5921 86.6295 81.5568 86.7022C81.5214 86.7749 81.5173 86.8434 81.5007 86.9099C81.4965 86.9922 81.4965 87.0747 81.5007 87.157C81.5173 87.2276 81.536 87.2969 81.5568 87.3647C81.596 87.4493 81.6397 87.5318 81.6876 87.6118V87.6118Z" fill="white"/>
<path d="M83.0608 86.412C83.0775 86.412 83.0399 86.3682 82.9753 86.3244L82.9565 86.314L83.0441 86.3953L83.0608 86.412Z" fill="white"/>
<path d="M82.9026 86.2557C82.9183 86.2736 82.9352 86.2905 82.953 86.3062H82.9677C82.9449 86.2909 82.9231 86.274 82.9026 86.2557V86.2557Z" fill="white"/>
<path d="M83.1835 87.5291L83.131 87.5795V87.5942C83.1469 87.5713 83.1645 87.5495 83.1835 87.5291V87.5291Z" fill="white"/>
<path d="M81.7584 87.6807L81.846 87.762H81.8606C81.8252 87.7226 81.7853 87.6876 81.7417 87.6577L81.7584 87.6807Z" fill="#2E2E2E"/>
<path d="M81.7586 86.395C81.7294 86.4221 81.7044 86.4534 81.6772 86.4826C81.6779 86.4874 81.6779 86.4923 81.6772 86.4971C81.7176 86.4622 81.7534 86.4223 81.7836 86.3783L81.7586 86.395Z" fill="#2E2E2E"/>
<path d="M83.0443 86.3953L82.9568 86.314H82.9421C82.9771 86.3543 83.017 86.3901 83.061 86.4203L83.0443 86.3953Z" fill="#2E2E2E"/>
<path d="M83.044 87.6808L83.1253 87.5932V87.5786C83.0859 87.614 83.0509 87.6539 83.021 87.6975L83.044 87.6808Z" fill="#2E2E2E"/>
<path d="M164.966 162.317C164.966 162.332 164.966 162.344 164.966 162.357V162.231C164.959 162.219 164.951 162.259 164.966 162.317Z" fill="white"/>
<path d="M167.396 163.012L167.423 162.973C167.387 163.006 167.354 163.037 167.321 163.075C167.287 163.112 167.352 163.083 167.396 163.012Z" fill="white"/>
<path d="M165.383 161.148L165.448 161.112L165.477 161.087C165.447 161.109 165.416 161.129 165.383 161.148V161.148Z" fill="white"/>
<path d="M167.574 161.601C167.574 161.569 167.553 161.54 167.547 161.509C167.551 161.529 167.556 161.549 167.562 161.569V161.569C167.567 161.579 167.572 161.59 167.574 161.601V161.601Z" fill="white"/>
<path d="M166.785 160.856C166.798 160.866 166.812 160.876 166.827 160.884H166.839C166.82 160.876 166.802 160.867 166.785 160.856Z" fill="white"/>
<path d="M164.98 162.456C164.98 162.427 164.98 162.404 164.98 162.381V162.356C164.982 162.389 164.982 162.423 164.98 162.456V162.456Z" fill="white"/>
<path d="M167.653 162.463C167.663 162.441 167.67 162.417 167.672 162.393C167.668 162.416 167.659 162.44 167.653 162.463Z" fill="white"/>
<path d="M167.657 161.851C167.643 161.799 167.625 161.747 167.605 161.696C167.605 161.729 167.595 161.71 167.562 161.569L167.493 161.446C167.472 161.411 167.447 161.378 167.427 161.345C167.395 161.32 167.367 161.292 167.341 161.262C167.281 161.197 167.223 161.133 167.167 161.077L167.096 161.027C167.049 160.998 166.997 160.973 166.945 160.948C166.902 160.934 166.862 160.912 166.826 160.884L166.702 160.844C166.644 160.828 166.586 160.815 166.529 160.803C166.432 160.803 166.334 160.803 166.237 160.803C166.266 160.803 166.237 160.823 166.093 160.819C165.992 160.844 165.886 160.873 165.792 160.904L165.68 160.963C165.63 160.992 165.584 161.023 165.537 161.056C165.58 161.033 165.58 161.044 165.447 161.12C165.412 161.152 165.379 161.185 165.346 161.218L165.263 161.311C165.2 161.409 165.142 161.507 165.084 161.608C165.069 161.643 165.056 161.678 165.044 161.714C165.017 161.804 165.005 161.91 164.978 162.003C164.978 162.053 164.978 162.105 164.978 162.157C164.978 162.209 164.978 162.209 164.978 162.234C164.991 162.282 164.995 162.333 164.99 162.383C165.017 162.489 165.047 162.591 165.08 162.701C165.111 162.757 165.138 162.813 165.169 162.867L165.256 163L165.499 163.243L165.618 163.318C165.674 163.351 165.732 163.38 165.788 163.409C165.906 163.446 166.025 163.48 166.145 163.509H166.289L166.496 163.498L166.704 163.457L166.835 163.413C166.928 163.351 167.042 163.303 167.142 163.243C167.169 163.22 167.204 163.195 167.217 163.183C167.255 163.146 167.29 163.106 167.323 163.064C167.351 163.02 167.388 162.982 167.431 162.952L167.495 162.855C167.526 162.798 167.555 162.742 167.584 162.686C167.614 162.63 167.634 162.531 167.655 162.452C167.662 162.399 167.673 162.347 167.688 162.296C167.695 162.185 167.695 162.073 167.688 161.962C167.676 161.93 167.668 161.891 167.657 161.851Z" fill="white"/>
<path d="M166.133 160.8C166.098 160.803 166.062 160.803 166.027 160.8H166.094H166.131H166.133Z" fill="white"/>
<path d="M167.458 161.374L167.422 161.338L167.458 161.374Z" fill="white"/>
<path d="M167.686 162.306C167.687 162.32 167.687 162.334 167.686 162.348C167.691 162.313 167.698 162.278 167.707 162.244C167.7 162.264 167.695 162.285 167.69 162.306H167.686Z" fill="white"/>
<path d="M166.908 160.904L166.839 160.881C166.873 160.904 166.909 160.924 166.945 160.942C166.987 160.959 166.979 160.934 166.908 160.904Z" fill="white"/>
<path d="M167.377 161.27C167.329 161.199 167.304 161.208 167.342 161.27C167.379 161.333 167.396 161.324 167.423 161.347L167.377 161.27Z" fill="white"/>
<path d="M167.458 162.938L167.429 162.963V162.973L167.458 162.938Z" fill="white"/>
<path d="M166.839 160.888H166.826C166.862 160.916 166.902 160.938 166.945 160.952C166.909 160.933 166.873 160.911 166.839 160.888V160.888Z" fill="#2E2E2E"/>
<path d="M167.432 161.339C167.404 161.316 167.377 161.289 167.35 161.261C167.375 161.293 167.404 161.321 167.436 161.346L167.432 161.339Z" fill="#2E2E2E"/>
<path d="M167.321 163.075C167.354 163.038 167.388 163.006 167.423 162.973V162.963C167.382 162.993 167.347 163.031 167.321 163.075Z" fill="#2E2E2E"/>
<path d="M164.976 162.358V162.383C164.981 162.333 164.977 162.282 164.963 162.234L164.976 162.358Z" fill="#2E2E2E"/>
<path d="M210.939 133.118L211.508 133.986C211.401 133.65 211.205 133.35 210.939 133.118V133.118Z" fill="#2E2E2E"/>
<path d="M164.999 165.982C165.763 166.249 166.589 166.28 167.371 166.071C168.152 165.863 168.853 165.424 169.383 164.813C169.934 164.166 170.272 163.365 170.35 162.519C170.428 161.673 170.242 160.824 169.817 160.088C169.377 159.366 168.726 158.796 167.951 158.457C167.176 158.118 166.316 158.025 165.487 158.192C163.618 158.528 162.297 160.306 162.272 162.154C162.283 162.994 162.55 163.811 163.037 164.495C163.524 165.179 164.209 165.698 164.999 165.982ZM164.97 162.231C164.97 162.206 164.97 162.179 164.97 162.154C164.97 162.129 164.97 162.051 164.97 162.001C164.997 161.907 165.009 161.793 165.036 161.712C165.048 161.676 165.061 161.641 165.076 161.606C165.134 161.504 165.192 161.398 165.254 161.309L165.337 161.216C165.371 161.182 165.404 161.149 165.439 161.118L165.375 161.153C165.407 161.135 165.438 161.115 165.468 161.093L165.439 161.118C165.572 161.041 165.572 161.031 165.529 161.054C165.576 161.02 165.622 160.989 165.672 160.96L165.784 160.902C165.884 160.871 165.992 160.842 166.085 160.817H166.019C166.054 160.82 166.089 160.82 166.125 160.817H166.087C166.228 160.817 166.26 160.817 166.23 160.8C166.328 160.8 166.426 160.8 166.523 160.8C166.579 160.813 166.638 160.825 166.696 160.842L166.82 160.881C166.806 160.873 166.792 160.864 166.779 160.854C166.796 160.866 166.814 160.877 166.833 160.885L166.901 160.908C166.972 160.931 166.98 160.956 166.939 160.946C166.991 160.971 167.043 160.996 167.09 161.025L167.161 161.074C167.217 161.13 167.275 161.195 167.335 161.259C167.298 161.205 167.323 161.197 167.371 161.259L167.416 161.328L167.452 161.363L167.421 161.334C167.441 161.367 167.466 161.4 167.487 161.436L167.556 161.558C167.549 161.539 167.545 161.518 167.541 161.498C167.541 161.529 167.56 161.558 167.568 161.589C167.565 161.579 167.561 161.57 167.556 161.56V161.56C167.589 161.702 167.605 161.72 167.599 161.687C167.619 161.738 167.637 161.79 167.651 161.843C167.651 161.882 167.67 161.922 167.678 161.963C167.684 162.075 167.684 162.186 167.678 162.298C167.682 162.277 167.688 162.256 167.695 162.235C167.686 162.27 167.679 162.304 167.674 162.339C167.675 162.325 167.675 162.312 167.674 162.298C167.658 162.349 167.647 162.401 167.641 162.453C167.641 162.431 167.655 162.408 167.659 162.385C167.657 162.409 167.651 162.432 167.641 162.453C167.62 162.532 167.595 162.611 167.57 162.688C167.545 162.765 167.512 162.8 167.481 162.856L167.416 162.954L167.445 162.929L167.41 162.964L167.383 163.004C167.34 163.074 167.304 163.089 167.308 163.066C167.276 163.108 167.24 163.147 167.202 163.185C167.19 163.197 167.155 163.222 167.128 163.245C167.032 163.305 166.92 163.353 166.82 163.415L166.689 163.459L166.482 163.5L166.274 163.511H166.131C166.01 163.482 165.892 163.448 165.774 163.411C165.717 163.382 165.659 163.353 165.603 163.32L165.485 163.245L165.242 163.002L165.155 162.869C165.124 162.815 165.097 162.759 165.065 162.703C165.032 162.597 165.003 162.495 164.976 162.385C164.976 162.408 164.976 162.431 164.976 162.46C164.978 162.426 164.978 162.393 164.976 162.36C164.976 162.348 164.976 162.335 164.976 162.321C164.951 162.258 164.959 162.219 164.97 162.231V162.231Z" fill="#2E2E2E"/>
<path d="M267.311 175.532H200.53L202.075 169.924L204.854 159.808C206.411 154.145 207.968 148.481 209.525 142.817C210.027 140.982 210.531 139.148 211.037 137.313C211.288 136.397 211.818 135.17 211.577 134.213C211.556 134.136 211.533 134.065 211.508 134.005L210.939 133.137C210.289 132.582 209.309 132.557 208.401 132.557H139.377C138.533 132.557 137.69 132.557 136.849 132.557L137.8 135.257H208.814C208.686 135.729 208.555 136.198 208.426 136.669L204.794 149.885C203.174 155.763 201.553 161.652 199.932 167.55L196.401 180.394C196.339 180.618 196.096 182.227 195.755 182.263H117.644L118.635 178.888L122.996 164.026L127.601 148.344C127.611 148.314 127.619 148.284 127.626 148.254L128.112 146.603C129.156 143.048 130.2 139.492 131.244 135.936C131.368 135.509 131.387 135.241 131.867 135.241H137.802L136.851 132.541C135.177 132.541 133.505 132.541 131.831 132.541C130.251 132.557 129.131 133.55 128.716 135.033L127.63 138.682C127.381 139.529 127.132 140.377 126.884 141.226C126.776 140.707 126.662 140.188 126.537 139.675C126.033 137.581 125.35 135.521 124.967 133.396C124.967 133.363 124.915 133.064 124.905 133.014C124.884 132.848 124.868 132.682 124.859 132.514C124.851 132.354 124.851 132.194 124.859 132.034C124.859 131.965 124.859 131.899 124.874 131.826C124.875 131.812 124.875 131.799 124.874 131.785C124.874 131.772 124.874 131.766 124.874 131.747C125.032 130.948 125.24 130.159 125.497 129.386C126.176 127.241 126.984 125.139 127.665 122.995C128.363 120.796 128.953 118.541 129.202 116.244C129.53 116.495 129.834 116.775 130.11 117.083C131.001 118.065 131.123 119.456 131.418 120.698C132.232 124.124 133.063 127.544 133.91 130.958C134.23 132.254 135.846 132.123 136.378 131.222C136.463 131.075 136.518 130.913 136.54 130.744C136.561 130.576 136.549 130.405 136.504 130.242C135.607 126.615 134.725 122.984 133.858 119.348C133.48 117.751 133.096 116.345 131.944 115.112C130.87 113.961 129.451 113.168 128.022 112.545C127.898 112.46 127.764 112.39 127.624 112.337C123.55 110.705 119.587 108.809 115.759 106.663C115.542 106.545 115.297 106.489 115.05 106.501L114.843 106.169C114.635 105.836 114.427 105.467 114.078 105.257C113.426 104.869 112.666 104.599 111.979 104.277L110.836 103.745C111.919 102.922 112.896 101.969 113.744 100.906C115.501 98.7501 117.067 96.4241 117.991 93.7823C118.928 91.1052 119.25 88.2599 119.495 85.4499C119.634 83.859 119.73 82.2599 119.946 80.6731C120.12 79.3876 120.38 78.1186 120.62 76.8434C120.963 75.0262 121.214 73.2068 120.87 71.4062C120.64 71.4018 120.411 71.3768 120.186 71.3314C119.769 71.2556 119.373 71.0884 119.028 70.8417C118.682 70.595 118.396 70.275 118.188 69.9046C118.058 70.0626 117.972 70.2526 117.94 70.455C117.908 70.6573 117.931 70.8646 118.006 71.0552C118.517 72.5796 118.394 74.0978 118.105 75.6887C117.69 77.9898 117.258 80.2702 117.044 82.6046C116.814 85.1363 116.693 87.6888 116.18 90.1852C115.672 92.6821 114.661 95.0498 113.21 97.1447C111.964 98.9599 110.523 100.883 108.61 102.038C107.009 102.967 105.169 103.401 103.322 103.284C99.2745 103.109 95.3492 100.981 92.3149 98.4116C89.3803 95.9194 86.8009 92.7625 85.2536 89.1945C85.6612 88.6416 85.911 87.9883 85.9764 87.3046C85.9961 87.2117 86.0052 87.117 86.0034 87.0221C85.9881 86.2785 85.7469 85.5571 85.3117 84.9539C84.8765 84.3507 84.2681 83.8942 83.5672 83.6451C82.9086 83.4178 82.1979 83.3877 81.5224 83.5585C80.8469 83.7293 80.2359 84.0936 79.7645 84.6067C79.6918 84.5444 79.617 84.4863 79.5464 84.4198C79.3159 84.2013 79.0981 83.9697 78.8943 83.7261L78.8257 83.641C78.7946 83.5974 78.7614 83.5537 78.7323 83.5101C78.6264 83.3544 78.5246 83.2007 78.427 83.0387C78.2733 82.7832 78.1383 82.5174 78.0116 82.2474C77.9908 82.2017 77.9701 82.156 77.9514 82.1103C77.9426 82.0922 77.9349 82.0734 77.9286 82.0543C77.8642 81.8798 77.7977 81.7054 77.7416 81.5267C77.6448 81.2274 77.5644 80.9231 77.5007 80.615C77.4654 80.4572 77.4384 80.2972 77.4135 80.1373C77.401 80.0376 77.3906 79.9296 77.3823 79.8362C77.3595 79.5509 77.3512 79.2646 77.3574 78.9784C77.3574 78.8206 77.372 78.6627 77.3823 78.5049C77.3823 78.4364 77.3969 78.3658 77.4031 78.2972C77.4555 78 77.5249 77.706 77.6108 77.4166C77.6503 77.2899 77.6939 77.1674 77.7375 77.0449C77.7375 77.0449 77.7375 77.0282 77.7375 77.0199C77.7666 76.9597 77.7936 76.8974 77.8247 76.8351C77.9374 76.6158 78.0643 76.4043 78.2048 76.2017C78.2422 76.156 78.2795 76.1103 78.3211 76.0687C78.4166 75.9691 78.5142 75.8714 78.6139 75.7759C78.6407 75.7522 78.6657 75.7265 78.6887 75.6991C78.7196 75.6838 78.7494 75.6664 78.778 75.6471C78.9109 75.5641 79.0438 75.4872 79.1809 75.4104C79.2147 75.3932 79.2473 75.3738 79.2785 75.3522C79.3171 75.3445 79.3552 75.3349 79.3927 75.3232L79.8767 75.1902H79.9389C79.968 75.1902 80.1092 75.1632 80.1466 75.1612C80.3356 75.1612 80.5225 75.1445 80.7136 75.1487C80.7925 75.1487 81.0189 75.1674 81.1082 75.1736L81.3387 75.2068C81.4696 75.2318 81.6004 75.2609 81.7313 75.2899C82.0383 75.3662 82.3625 75.3297 82.6449 75.1872C82.9273 75.0447 83.1492 74.8055 83.2702 74.5132C83.5859 73.8216 83.3969 72.9078 82.4395 72.6939C81.7178 72.5294 80.9778 72.4596 80.238 72.4862C79.1996 71.0697 78.724 69.8195 78.3689 68.0728C78.198 67.2485 78.1055 66.4099 78.0926 65.5681C78.065 64.5969 78.1102 63.625 78.2276 62.6605C78.643 59.2337 80.1674 55.5224 82.7967 53.0945C83.4942 52.4396 84.2869 51.8941 85.1477 51.4766C85.5458 51.2707 85.9632 51.1045 86.3938 50.9803C86.9292 50.8164 87.4763 50.6935 88.0304 50.6127C88.7511 50.5047 89.1477 49.5971 88.9712 48.9512C88.9176 48.7524 88.8172 48.5694 88.6784 48.4174C88.5027 48.2419 88.2866 48.1122 88.049 48.0398C87.8114 47.9673 87.5597 47.9544 87.316 48.002C78.3585 49.3416 74.427 59.9793 75.6315 67.9586C75.8887 69.8359 76.5315 71.6397 77.5194 73.2567C77.5079 73.2621 77.4968 73.2683 77.4862 73.2754C76.2027 74.1316 75.2896 75.4407 74.9296 76.941C74.6926 77.8753 74.605 78.8412 74.6699 79.8029C72.9898 79.9587 71.3366 80.5589 70.1632 81.8175C68.9897 83.0761 68.3895 84.8289 68.3708 86.5714C68.3629 87.8864 68.6385 89.1877 69.1787 90.3866C67.5149 90.124 65.8301 90.0183 64.1465 90.0709C63.9115 90.0757 63.6817 90.1411 63.4795 90.2609C63.2772 90.3806 63.1094 90.5507 62.9924 90.7545C62.8753 90.9583 62.813 91.189 62.8114 91.424C62.8098 91.6591 62.8691 91.8905 62.9834 92.0959C64.5182 94.9308 66.2317 97.7179 68.4726 100.054C69.5227 101.143 70.6932 102.109 71.9617 102.933C70.5675 103.204 69.2068 103.625 67.9035 104.189C65.0811 105.415 62.6075 107.305 60.2981 109.317C59.6979 109.841 59.7996 111.095 60.5701 111.431C61.4549 111.814 62.3376 112.217 63.2285 112.601L63.1953 112.617C63.1295 112.624 63.0642 112.635 63.0001 112.651C60.4684 113.335 58.028 114.321 55.7311 115.587C54.4663 116.273 53.3115 116.977 52.433 118.046C52.2316 118.164 52.0606 118.328 51.9333 118.524C51.8061 118.719 51.7261 118.942 51.6999 119.174C51.3259 119.885 51.0092 120.625 50.7528 121.386C50.5202 122.053 50.3187 122.73 50.1298 123.405C49.5067 125.689 48.9979 127.974 48.3478 130.258C47.5711 132.958 46.7424 135.658 45.9033 138.358C43.9054 144.753 41.8327 151.122 39.8119 157.511C38.8815 160.456 37.9594 163.405 37.0746 166.364C36.6904 167.648 36.3124 168.936 35.951 170.225C35.5066 171.812 35.1743 173.368 35.7849 174.969C35.8617 175.177 35.949 175.37 36.0445 175.563H21.5065V178.263H38.6738C38.9583 178.411 39.2699 178.5 39.5897 178.524C40.1899 178.549 40.8067 178.495 41.409 178.481L47.623 178.333L48.0571 178.323C48.1817 178.319 48.3052 178.299 48.4247 178.263H116.014L115.871 178.751H109.279C106.037 178.751 102.778 178.651 99.5404 178.751H99.4095C97.9079 178.751 97.559 181.019 99.0502 181.395L108.969 183.887C110.215 184.198 111.445 184.554 112.693 184.824C113.462 184.959 114.243 185.011 115.023 184.979H117.252C118.083 184.979 118.913 184.979 119.757 184.979H195.747C195.879 184.979 196.01 184.96 196.137 184.923C196.723 184.813 197.265 184.537 197.699 184.128C198.132 183.719 198.439 183.194 198.584 182.616C198.692 182.234 198.791 181.85 198.899 181.465L199.78 178.261H254.68C258.709 178.261 262.744 178.338 266.771 178.261C266.948 178.261 267.124 178.261 267.301 178.261C269.041 178.223 269.045 175.532 267.311 175.532ZM209.313 135.241C209.433 135.199 209.444 135.361 209.273 135.241C209.287 135.239 209.3 135.236 209.313 135.23V135.241ZM114.99 181.762C114.942 181.929 114.904 182.099 114.876 182.271H114.623C113.678 182.271 113.125 182.138 112.13 181.885L110.294 181.424H115.094L114.99 181.762ZM110.629 113.94C111.009 111.997 111.212 110.024 111.233 108.044C111.233 107.664 111.219 107.274 111.192 106.879L112.479 107.481L119.04 117.567C118.344 117.459 117.649 117.359 116.963 117.305C115.142 117.141 113.121 117.112 111.449 117.957C110.431 118.472 110.679 119.652 111.403 120.177C111.583 120.309 111.792 120.395 112.012 120.426C111.376 123.126 110.652 125.81 109.877 128.472C107.866 135.401 105.54 142.24 103.05 149.008C102.859 149.527 102.666 150.047 102.475 150.562C102.118 149.99 101.758 149.421 101.403 148.848C99.3791 145.575 97.379 142.286 95.4032 138.981C92.9359 134.848 90.5102 130.688 88.1675 126.482C87.1664 124.686 86.1778 122.881 85.2163 121.062C86.4748 121.062 87.7355 121.118 88.992 121.189C89.3043 121.216 89.6147 121.119 89.856 120.919C90.6389 120.254 90.3502 118.572 88.992 118.497C86.2111 118.341 83.3845 118.204 80.6409 118.84C78.7717 119.272 77.0085 120.059 75.2992 120.946C76.3584 116.196 77.417 111.447 78.4748 106.698C78.6202 106.042 78.7676 105.388 78.913 104.732L80.6825 103.485L89.1685 116.025C90.2713 117.654 91.1291 119.456 92.0761 121.18C93.3098 123.438 94.54 125.699 95.7667 127.963C95.9481 128.294 96.1281 128.624 96.3067 128.954L99.9142 135.585C100.33 136.354 101.133 136.387 101.715 136.036C101.901 136.01 102.078 135.94 102.231 135.831C102.384 135.723 102.509 135.58 102.595 135.413L106.072 127.965L106.969 126.04C107.488 124.94 107.935 123.807 108.307 122.649C109.214 119.783 110.093 116.9 110.629 113.92V113.94ZM85.0709 96.6525C85.1429 96.0087 85.2121 95.3649 85.2785 94.721C86.4378 96.3722 87.7598 97.9029 89.2246 99.2901C92.5704 102.468 96.8467 105.118 101.478 105.82C103.64 106.15 105.889 106.098 107.962 105.334L107.935 105.352C105.567 107.317 102.469 107.456 99.5175 106.68C95.6691 105.666 92.1654 103.438 89.0418 101.033C87.5714 99.9007 86.1695 98.6795 84.8133 97.4126C84.9625 97.1777 85.051 96.9094 85.0709 96.6318V96.6525ZM92.7822 106.744C96.1675 108.636 100.161 110.21 104.109 109.735C105.586 109.561 107.01 109.082 108.292 108.329L108.523 108.875C108.504 109.473 108.463 110.073 108.4 110.669L108.35 110.719L108.13 110.91L107.985 111.029L107.808 111.161C107.694 111.24 107.58 111.319 107.466 111.394C105.067 112.966 101.92 113.598 98.99 113.415C96.7864 113.28 94.6286 112.584 92.668 111.593C92.4567 111.463 92.2125 111.395 91.964 111.398C91.6841 111.387 91.4089 111.472 91.1843 111.64C90.9598 111.807 90.7995 112.047 90.7303 112.318C90.6985 112.389 90.6728 112.463 90.6535 112.538C90.5823 112.776 90.5923 113.031 90.6818 113.263C90.7712 113.494 90.9352 113.69 91.1478 113.818C91.2542 113.9 91.3735 113.965 91.5008 114.009C96.4853 116.457 102.301 116.902 107.405 114.507C107.547 114.441 107.684 114.36 107.821 114.3C107.288 116.743 106.624 119.155 105.833 121.527C105.682 122.003 105.528 122.478 105.376 122.954C105.331 123.095 105.279 123.238 105.237 123.382C105.044 123.72 104.905 124.119 104.745 124.466C103.885 126.306 103.026 128.147 102.168 129.988L101.117 132.237C98.9111 128.181 96.7047 124.125 94.4977 120.071C93.5985 118.41 92.7864 116.671 91.7501 115.103C91.0896 114.102 90.4146 113.11 89.7417 112.115C88.7989 110.73 87.8566 109.346 86.9151 107.961L82.3626 101.234C82.5235 101.083 82.6337 100.885 82.6783 100.669C82.7586 100.227 82.841 99.7858 82.9255 99.3441C85.9328 102.129 89.1934 104.717 92.7822 106.723V106.744ZM81.5007 86.9349C81.5174 86.8643 81.5361 86.7916 81.5568 86.7272C81.5776 86.6628 81.6274 86.588 81.669 86.5195C81.6544 86.534 81.6399 86.5507 81.6191 86.5693C81.6396 86.5489 81.659 86.5274 81.6773 86.505L81.6877 86.4842C81.7313 86.4198 81.779 86.3824 81.7749 86.4011L81.8268 86.3471C81.9039 86.299 81.9836 86.2554 82.0656 86.2163C82.1342 86.1955 82.2069 86.1768 82.2733 86.1602C82.3557 86.1561 82.4382 86.1561 82.5205 86.1602L82.7282 86.2163C82.7967 86.2516 82.8673 86.2869 82.9359 86.3284C82.9182 86.3129 82.9016 86.2962 82.886 86.2786C82.906 86.2996 82.9275 86.319 82.9504 86.3367L82.9691 86.3471C83.0335 86.3907 83.0708 86.4385 83.0542 86.4344L83.1082 86.4863C83.1564 86.5629 83.1994 86.6427 83.237 86.7251C83.2605 86.7973 83.2799 86.8708 83.2952 86.9453C83.2952 86.9827 83.2952 87.0221 83.2952 87.0595C83.2952 87.0969 83.2952 87.1363 83.2952 87.1758C83.2799 87.2502 83.2605 87.3237 83.237 87.396C83.2033 87.4671 83.1659 87.5365 83.1248 87.6036L83.1768 87.5538C83.1558 87.5738 83.1364 87.5953 83.1186 87.6182L83.1062 87.6389C83.0625 87.7033 83.0148 87.7407 83.021 87.722L82.9691 87.776C82.8922 87.8238 82.8124 87.8668 82.7303 87.9048C82.6596 87.9276 82.589 87.9463 82.5226 87.9629C82.4402 87.9671 82.3577 87.9671 82.2754 87.9629C82.2027 87.9463 82.1321 87.9276 82.0677 87.9048C81.9963 87.8716 81.927 87.8341 81.86 87.7926L81.9099 87.8445L81.8455 87.7864L81.8247 87.7739C81.7604 87.7324 81.723 87.6825 81.7417 87.6888L81.6877 87.6369C81.64 87.5595 81.5963 87.4798 81.5568 87.398C81.5361 87.3274 81.5174 87.2582 81.5007 87.1903C81.4956 87.0983 81.4956 87.0061 81.5007 86.9141V86.9349ZM71.0811 86.1727C71.0811 86.0958 71.0978 86.0169 71.1019 85.9401C71.1331 85.7802 71.158 85.6223 71.1954 85.4645C71.2327 85.3066 71.2764 85.1592 71.3241 85.0096C71.349 84.9349 71.3781 84.8622 71.403 84.7874V84.7729C71.5526 84.4842 71.7042 84.2121 71.8807 83.9421C71.943 83.8757 71.9991 83.803 72.0614 83.7345C72.1902 83.5974 72.3293 83.4769 72.4768 83.3502L72.4913 83.3357C72.5723 83.2838 72.6492 83.2235 72.7302 83.1737C72.9005 83.0657 73.0791 82.9785 73.2535 82.8829C73.2667 82.8773 73.2792 82.8703 73.2909 82.8622C73.3906 82.8268 73.4986 82.7874 73.5921 82.7542C73.7998 82.6856 74.0199 82.6275 74.238 82.5797L74.5827 82.5153H74.6118H74.6928C74.861 82.5008 75.0293 82.4987 75.1975 82.4904C75.6431 83.8107 76.3653 85.0208 77.3159 86.0398C77.3657 86.0917 77.4197 86.1353 77.4696 86.1851C77.8722 86.5876 78.3187 86.9436 78.8008 87.2464C78.8272 87.832 78.9962 88.4024 79.293 88.9079C79.6458 89.5083 80.1682 89.991 80.7946 90.2952C81.4564 90.6022 82.1922 90.7132 82.9151 90.6151L83.021 90.8435C83.021 90.8622 83.021 90.8809 83.021 90.9017L82.94 91.6307L82.5247 95.4064C81.8227 95.1717 80.9234 95.4812 80.7738 96.2911C80.7738 96.3161 80.7739 96.341 80.7593 96.368C80.1645 95.6716 79.5075 95.0306 78.7967 94.4531C79.4083 94.2096 79.997 93.9122 80.5558 93.5642C80.6802 93.4858 80.7917 93.3884 80.886 93.2755C81.7167 92.2973 80.6513 90.5922 79.3927 91.1447C79.3247 91.1702 79.2594 91.2022 79.1975 91.2402C78.9898 91.3711 78.7718 91.4977 78.5537 91.6161C78.4498 91.6722 78.346 91.7262 78.238 91.7781L77.9908 91.8944L77.7832 91.9775C77.6835 92.0149 77.5755 92.0523 77.482 92.0855C77.2743 92.154 77.0563 92.2143 76.8403 92.2641C76.7447 92.287 76.6471 92.3056 76.5516 92.3243L76.4748 92.3368C76.2941 92.3555 76.1134 92.3721 75.9306 92.3763C75.7479 92.3804 75.5755 92.3763 75.3989 92.3617H75.2888L75.1165 92.3326C74.9524 92.2994 74.7883 92.2579 74.6284 92.2101L74.3917 92.1333L74.2546 92.0793C74.1757 92.0398 73.9846 91.9484 73.9264 91.9173C73.7728 91.8321 73.6211 91.7407 73.4758 91.6431C73.4134 91.6016 73.3553 91.5559 73.2951 91.5144C73.1663 91.3918 73.0271 91.2817 72.9005 91.1592C72.7738 91.0367 72.672 90.9245 72.564 90.802C72.5079 90.7397 72.4581 90.6753 72.4041 90.613L72.3916 90.5985C72.2006 90.3077 72.0033 90.0273 71.8392 89.72C71.7582 89.5725 71.6897 89.4209 71.6149 89.2713V89.2506C71.5837 89.1717 71.5526 89.0927 71.5235 89.0138C71.3989 88.675 71.2976 88.328 71.2203 87.9754C71.185 87.8175 71.1621 87.6597 71.131 87.5039C71.131 87.4105 71.1123 87.3191 71.106 87.2277C71.0712 86.8702 71.0628 86.5106 71.0811 86.1519V86.1727ZM70.2504 98.0253C68.7958 96.4323 67.5257 94.6801 66.4643 92.802C68.3071 92.9017 70.1306 93.2288 71.8932 93.7761C72.4936 94.2103 73.1597 94.5454 73.8662 94.7688C74.1547 94.8579 74.4489 94.9273 74.7468 94.9765C76.862 96.0527 78.6376 97.6939 79.8767 99.718C79.9355 99.8136 80.0052 99.9021 80.0843 99.9817C80.0495 100.199 80.0586 100.422 80.1113 100.636L78.3107 101.899C78.0095 102.106 77.6087 102.341 77.2494 102.609C74.5855 101.651 72.1879 100.073 70.2545 98.0046L70.2504 98.0253ZM69.0873 106.597C71.2725 105.666 73.6286 105.205 76.0033 105.242C75.8974 105.768 75.7956 106.295 75.6855 106.813L74.7198 111.145C72.6369 111.923 70.3674 112.054 68.2088 111.521C66.6895 111.113 65.2075 110.576 63.7789 109.917C65.3988 108.58 67.1844 107.457 69.0915 106.576L69.0873 106.597ZM55.4548 118.881C56.217 118.395 57.0062 117.951 57.8141 117.542C59.6251 116.61 61.5263 115.866 63.4881 115.319C63.6911 115.304 63.8896 115.252 64.0738 115.166C64.9793 114.75 65.8828 114.338 66.7841 113.93C67.0853 114.017 67.3885 114.098 67.6959 114.169C69.7858 114.662 71.9626 114.654 74.049 114.146L72.8029 119.741L72.0303 123.207C71.7769 124.345 72.9524 125.317 74.0074 124.728C76.3501 123.417 78.7136 122.065 81.3429 121.456C81.6627 121.382 81.966 121.326 82.2692 121.278C82.5205 121.76 82.7718 122.242 83.0272 122.721C82.8655 122.682 82.6974 122.675 82.533 122.701C82.3685 122.728 82.211 122.787 82.0698 122.875C82.0345 122.896 81.8621 122.979 81.7977 123.014C81.7334 123.049 81.507 123.116 81.4551 123.132C81.0792 123.251 80.6949 123.34 80.3107 123.438C79.5082 123.609 78.7157 123.824 77.9368 124.082C76.2525 124.69 74.7343 125.922 75.1933 127.913C75.455 129.045 76.1362 130.175 76.6949 131.184C77.4052 132.472 78.1757 133.727 78.9608 134.969C82.6783 140.838 86.7552 146.487 90.8632 152.086C91.8747 153.461 92.8861 154.836 93.9141 156.2C94.3503 156.78 95.0751 157.079 95.7563 156.682C96.3275 156.348 96.6784 155.426 96.2381 154.84C93.6241 151.369 91.0626 147.859 88.5538 144.31C86.4769 141.403 84.4478 138.47 82.4935 135.484C80.9753 133.164 79.428 130.813 78.2276 128.308L78.0552 127.936C78.0324 127.884 78.0095 127.832 77.9929 127.791C77.9452 127.673 77.8974 127.552 77.8517 127.432C77.8517 127.432 77.8226 127.307 77.8039 127.241C77.8039 127.228 77.8039 127.218 77.8039 127.205C77.7969 127.218 77.792 127.232 77.7894 127.247L77.8039 127.228C77.7873 127.398 77.7769 127.313 77.7894 127.247C77.7894 127.263 77.7769 127.247 77.806 127.187V127.201V127.191C77.8051 127.186 77.8051 127.181 77.806 127.176L77.8372 127.145C77.8266 127.16 77.8169 127.175 77.8081 127.191V127.209C77.8231 127.185 77.8363 127.16 77.8476 127.135C77.8631 127.118 77.8798 127.102 77.8974 127.087C77.8517 127.141 78.1321 126.925 78.2152 126.879L78.4229 126.777L78.4727 126.75L78.5454 126.725C80.1321 126.138 81.9597 126.069 83.4384 125.205C83.7035 125.059 83.907 124.822 84.0117 124.539C84.2526 124.979 84.4894 125.423 84.7303 125.864C87.0792 130.15 89.5257 134.379 92.018 138.588C94.1184 142.134 96.2513 145.661 98.4168 149.168C99.4552 150.848 100.454 152.566 101.555 154.204C101.571 154.227 101.587 154.251 101.601 154.275C102.261 155.313 103.646 155.016 104.06 153.953C105.615 149.966 107.05 145.93 108.436 141.88C110.261 136.553 112.006 131.172 113.462 125.72C113.543 125.857 113.651 125.976 113.779 126.069C113.908 126.163 114.054 126.229 114.209 126.264C115.162 126.451 116.1 126.707 117.015 127.031C117.288 127.115 117.552 127.223 117.806 127.353C117.952 127.425 118.099 127.5 118.238 127.585C118.319 127.633 118.542 127.793 118.481 127.745C118.51 127.769 118.538 127.793 118.564 127.82C118.474 128.346 118.341 128.863 118.168 129.367C117.692 130.591 116.949 131.735 116.313 132.881C115.621 134.136 114.929 135.389 114.236 136.64L110.083 144.157L105.333 152.705C104.502 154.221 106.818 155.581 107.657 154.063L116.755 137.621L118.965 133.627C119.7 132.298 120.537 130.958 120.957 129.486C121.244 128.476 121.433 127.216 120.805 126.3C120.344 125.625 119.603 125.191 118.872 124.867C117.606 124.312 116.283 123.901 114.926 123.641C114.602 123.576 114.265 123.617 113.966 123.758C114.29 122.482 114.594 121.204 114.878 119.924C115.634 119.906 116.39 119.937 117.142 120.015C118.677 120.15 120.191 120.469 121.651 120.966C122.749 121.357 123.79 119.945 123.171 118.989L118.762 112.194L117.865 110.81C120.654 112.235 123.509 113.544 126.411 114.711C126.469 114.758 126.533 114.798 126.602 114.829L126.627 114.84C126.419 119.508 124.461 123.909 123.03 128.291C122.533 129.812 122.035 131.407 122.218 133.018C122.45 135.083 123.098 137.079 123.617 139.081C124.359 141.938 124.932 144.819 124.967 147.779C124.371 149.814 123.774 151.849 123.177 153.882C121.873 158.32 120.569 162.759 119.266 167.199C118.998 165.746 117.854 164.659 116.799 163.567C115.503 162.225 114.284 160.811 113.007 159.453C112.124 158.514 111.138 157.351 109.937 156.794C109.838 156.735 109.732 156.688 109.621 156.655C108.824 156.384 107.968 156.337 107.146 156.518C106.523 156.714 105.941 157.022 105.428 157.428C105.233 157.567 105.042 157.71 104.851 157.843C104.577 157.708 104.272 157.649 103.968 157.673C103.918 157.673 103.869 157.691 103.819 157.702C103.769 157.712 103.68 157.702 103.611 157.721H103.586L103.397 157.739C103.281 157.739 103.164 157.756 103.05 157.768C102.659 157.798 102.271 157.861 101.891 157.959C101.018 158.244 100.221 158.721 99.557 159.355C98.8892 159.46 98.246 159.685 97.6587 160.02C97.2586 160.245 96.8742 160.496 96.5081 160.774C96.1038 160.531 95.6474 160.389 95.1769 160.358C93.3825 160.256 91.9702 161.793 90.6348 162.778C88.6327 164.252 86.5288 165.322 83.9743 165.305C82.3647 165.305 80.7385 165.125 79.131 165.035C78.4291 164.998 77.7105 164.911 77.0064 164.915C76.8552 164.752 76.6557 164.642 76.4374 164.601L62.9149 162.389L62.3915 162.304L67.8433 145.043L68.6741 142.402C68.7751 142.111 68.7625 141.794 68.6387 141.513C68.6387 141.465 68.6387 141.417 68.6387 141.369C67.5276 134.1 63.9118 127.22 58.6387 122.092C57.5315 121.017 56.3518 120.019 55.108 119.105C55.1994 119.035 55.3178 118.952 55.459 118.86L55.4548 118.881ZM118.502 127.502C118.558 127.515 118.571 127.612 118.558 127.758C118.525 127.623 118.479 127.477 118.506 127.481L118.502 127.502ZM107.785 159.154C107.819 159.143 107.947 159.122 107.977 159.114C108.266 159.108 108.554 159.154 108.826 159.251V159.251C108.901 159.305 108.978 159.355 109.059 159.401L109.075 159.411H109.086C109.194 159.507 109.308 159.598 109.416 159.696C109.908 160.134 110.369 160.607 110.824 161.083C111.862 162.184 112.878 163.324 113.908 164.441C114.38 164.952 114.853 165.463 115.347 165.951C115.842 166.439 116.427 166.931 116.608 167.613C116.643 167.765 116.64 167.924 116.599 168.076C116.558 168.227 116.479 168.365 116.371 168.479C116.336 168.516 116.191 168.649 116.145 168.686L116.041 168.763C115.925 168.844 115.815 168.931 115.694 169.008C115.646 169.039 115.58 169.077 115.526 169.108C115.445 169.054 115.354 169.006 115.273 168.954L115.227 168.915C115.228 168.911 115.228 168.906 115.227 168.902C114.5 167.147 112.959 165.739 111.696 164.346C110.348 162.85 108.996 161.359 107.53 159.964C107.383 159.82 107.227 159.685 107.075 159.548C107.262 159.414 107.46 159.295 107.665 159.191C107.864 159.079 107.659 159.172 107.79 159.133L107.785 159.154ZM39.4962 175.561C39.1455 175.316 38.8474 175.003 38.6195 174.641C38.3916 174.279 38.2384 173.875 38.1691 173.453C38.0092 172.468 38.4142 171.473 38.68 170.545C39.2782 168.433 39.9116 166.331 40.5492 164.234C42.0798 159.249 43.677 154.265 45.2678 149.305C46.8109 144.478 48.3603 139.652 49.8369 134.8C50.4185 132.881 50.9896 130.956 51.515 129.02C52.0259 127.151 52.4164 125.236 52.9688 123.371C53.1574 122.708 53.3806 122.055 53.6376 121.415C58.7085 125.203 62.5333 130.418 64.6221 136.393C65.2488 138.207 65.7131 140.073 66.0094 141.97L60.1942 160.42L59.3635 163.064C59.1558 163.704 59.6023 164.605 60.3022 164.726L73.4404 166.875C73.2182 167.05 72.9919 167.22 72.78 167.405C70.3771 169.503 68.969 172.452 68.4851 175.573L39.4962 175.561ZM99.1811 174.772L98.8882 174.904L98.693 174.979C98.5125 175.049 98.3272 175.105 98.1385 175.147C97.1654 175.308 96.1795 175.377 95.1935 175.355C95.0897 175.355 94.9858 175.355 94.8778 175.343C95.7781 174.611 96.5709 173.756 97.233 172.803L99.3451 174.655C99.2953 174.688 99.2413 174.718 99.1852 174.742L99.1811 174.772ZM105.653 174.356C105.632 174.418 105.607 174.487 105.594 174.524L105.542 174.607L105.486 174.674C105.464 174.697 105.414 174.74 105.383 174.765C105.351 174.79 105.308 174.817 105.268 174.84C105.229 174.863 105.189 174.882 105.15 174.902C105.111 174.923 104.969 174.975 104.942 174.981C104.915 174.988 104.654 175.031 104.618 175.044C104.456 175.056 104.293 175.056 104.13 175.044H104.12L104.041 175.021C103.956 174.996 103.871 174.975 103.788 174.948L103.692 174.911C103.582 174.858 103.475 174.8 103.372 174.734C103.15 174.541 102.942 174.333 102.749 174.111C102.631 173.993 102.496 173.889 102.369 173.779L100.708 172.325L97.856 169.777C97.8415 169.762 97.8207 169.752 97.8062 169.739C97.7642 169.682 97.7169 169.628 97.6649 169.579L95.0253 167.343L94.6494 167.023C94.3918 166.778 94.053 166.638 93.6981 166.628C93.3418 166.631 93.0006 166.772 92.747 167.023C92.4957 167.276 92.3539 167.617 92.3523 167.974C92.3512 168.151 92.3855 168.327 92.4532 168.491C92.521 168.654 92.6209 168.803 92.747 168.927L95.1935 171.004C93.7044 173.274 91.1395 175.112 88.398 175.208C87.4738 175.239 86.5288 175.16 85.6067 175.137L73.1455 174.817L71.3657 174.772C71.6812 173.472 72.2255 172.239 72.9731 171.131C74.0261 169.602 75.5298 168.485 77.158 167.635C79.3803 167.762 81.6067 167.93 83.831 168.005C85.7372 168.031 87.6232 167.611 89.3388 166.78C90.2765 166.313 91.1668 165.757 91.9972 165.118C92.533 164.724 93.0585 164.312 93.5881 163.905C93.9494 163.627 94.4873 163.075 94.9671 163.06C95.5279 163.039 96.3212 164.184 96.7117 164.582C97.361 165.251 98.0125 165.917 98.666 166.58C100.128 168.074 101.591 169.567 103.054 171.058C103.592 171.609 104.124 172.167 104.666 172.72C104.991 173.016 105.276 173.355 105.511 173.727C105.603 173.843 105.656 173.984 105.665 174.132C105.665 174.155 105.665 174.169 105.675 174.186C105.686 174.203 105.659 174.286 105.657 174.325L105.653 174.356ZM109.736 173.285C109.736 173.285 109.74 173.251 109.74 173.253L109.736 173.285ZM109.736 173.253C109.731 173.275 109.725 173.297 109.717 173.318L109.732 173.293C109.725 173.308 109.717 173.322 109.709 173.336C109.709 173.33 109.709 173.324 109.709 173.318C109.68 173.366 109.636 173.413 109.694 173.349C109.694 173.363 109.682 173.376 109.673 173.388C109.665 173.401 109.565 173.515 109.52 173.561L109.349 173.656C109.337 173.656 109.156 173.721 109.092 173.739L109.061 173.75H108.888C108.678 173.75 108.468 173.721 108.265 173.663C108.033 172.416 107.196 171.501 106.325 170.603C105.558 169.814 104.789 169.027 104.018 168.242C102.207 166.394 100.396 164.545 98.585 162.697L98.5372 162.645L98.5808 162.616C98.9215 162.408 99.2974 162.3 99.6359 162.111C99.6837 162.084 99.7231 162.067 99.7522 162.051C99.7647 162.07 99.7801 162.088 99.7979 162.103C101.16 163.28 102.373 164.68 103.607 165.991L107.617 170.346C108.103 170.882 108.585 171.426 109.071 171.955C109.272 172.153 109.45 172.374 109.599 172.614C109.705 172.792 109.613 172.639 109.709 172.869C109.709 172.886 109.727 172.944 109.738 172.992C109.748 173.039 109.738 173.172 109.738 173.179C109.74 173.193 109.74 173.208 109.74 173.222L109.736 173.253ZM110.286 169.332L105.54 164.065C104.859 163.343 104.161 162.634 103.464 161.918L102.336 160.695C102.505 160.617 102.68 160.553 102.859 160.504L103.002 160.477L103.335 160.447C103.509 160.433 103.68 160.404 103.852 160.383C103.997 160.477 104.151 160.562 104.292 160.663L104.328 160.688L104.398 160.749L104.718 161.019C104.976 161.241 105.225 161.471 105.47 161.704C106.656 162.825 107.771 164.022 108.874 165.224C109.977 166.427 111.086 167.557 112.068 168.807C112.334 169.136 112.558 169.495 112.737 169.878C112.764 169.937 112.778 170.005 112.828 170.165C112.828 170.182 112.828 170.209 112.843 170.236C112.834 170.287 112.834 170.34 112.843 170.391C112.832 170.42 112.824 170.449 112.818 170.479C112.804 170.507 112.789 170.535 112.772 170.562C112.767 170.568 112.762 170.575 112.757 170.583C112.732 170.612 112.705 170.641 112.676 170.668C112.635 170.709 112.479 170.834 112.469 170.85C112.417 170.884 112.363 170.917 112.313 170.952L112.242 170.936C112.207 170.917 112.172 170.9 112.139 170.88C112.016 170.805 111.891 170.732 111.773 170.649C111.493 170.44 111.226 170.213 110.973 169.972C110.733 169.756 110.525 169.527 110.29 169.301L110.286 169.332ZM117.044 182.284C117.059 182.271 117.077 182.263 117.097 182.259C117.116 182.255 117.136 182.257 117.154 182.263C117.121 182.25 117.084 182.246 117.048 182.252L117.044 182.284ZM116.809 175.563H111.285C111.854 175.073 112.238 174.404 112.375 173.667C112.935 173.661 113.478 173.478 113.927 173.143C114.432 172.79 114.849 172.325 115.144 171.783C115.794 171.877 116.456 171.737 117.013 171.388C117.515 171.089 117.971 170.717 118.365 170.286L117.991 171.557C117.599 172.872 117.207 174.197 116.814 175.532L116.809 175.563Z" fill="#2E2E2E"/>
<path d="M36.4326 189.413L36.4434 189.439L36.4326 189.413Z" fill="white"/>
<path d="M36.456 189.414C36.4833 189.326 36.4371 189.314 36.4287 189.362L36.456 189.414Z" fill="white"/>
<path d="M256.837 46.0128C259.818 53.9988 260.417 62.6783 258.561 70.9981C256.706 79.3178 252.475 86.9202 246.384 92.8827C240.292 98.8452 232.6 102.912 224.243 104.588C215.885 106.265 207.22 105.48 199.3 102.328L189.658 113.316C189.329 113.688 188.888 113.944 188.401 114.045C187.914 114.145 187.407 114.085 186.957 113.874C186.507 113.663 186.138 113.311 185.904 112.872C185.671 112.434 185.585 111.931 185.662 111.439L188.111 95.8305C182.809 91.5975 178.557 86.1967 175.687 80.0495C172.816 73.9023 171.405 67.175 171.563 60.3925C171.721 53.61 173.444 46.9556 176.597 40.9487C179.751 34.9417 184.249 29.7446 189.742 25.7629C195.235 21.7811 201.574 19.1224 208.264 17.9941C214.954 16.8659 221.814 17.2986 228.309 19.2586C234.804 21.2185 240.759 24.6527 245.708 29.2931C250.657 33.9335 254.467 39.6547 256.841 46.0103L256.837 46.0128Z" fill="#FFF050"/>
<path fill-rule="evenodd" clip-rule="evenodd" d="M256.841 46.0103C254.467 39.6547 250.657 33.9335 245.708 29.2931C240.759 24.6527 234.804 21.2185 228.309 19.2586C221.814 17.2986 214.954 16.8659 208.264 17.9941C201.574 19.1224 195.235 21.7811 189.742 25.7629C184.249 29.7446 179.751 34.9417 176.597 40.9487C173.444 46.9556 171.721 53.61 171.563 60.3925C171.405 67.175 172.816 73.9023 175.687 80.0495C178.557 86.1967 182.809 91.5975 188.111 95.8305L185.662 111.439C185.585 111.931 185.671 112.434 185.904 112.872C186.138 113.311 186.507 113.663 186.957 113.874C187.407 114.085 187.914 114.145 188.401 114.045C188.888 113.944 189.329 113.688 189.658 113.316L199.3 102.328C207.22 105.48 215.885 106.265 224.243 104.588C232.6 102.912 240.292 98.8452 246.384 92.8827C252.475 86.9202 256.706 79.3178 258.561 70.9981C260.417 62.6783 259.818 53.9988 256.837 46.0128L256.841 46.0103ZM252.89 46.8757C250.72 41.3109 247.332 36.2996 242.972 32.2111C238.472 27.9921 233.059 24.8699 227.154 23.088C221.248 21.3061 215.011 20.9127 208.929 21.9384C202.847 22.9642 197.084 25.3814 192.09 29.0015C187.096 32.6216 183.006 37.3466 180.139 42.8079C177.272 48.2692 175.705 54.3191 175.562 60.4856C175.418 66.652 176.701 72.7683 179.311 78.3571C181.921 83.9459 185.787 88.8561 190.607 92.7046L192.423 94.1547L190.522 106.267L198.156 97.568L200.779 98.6118C207.98 101.477 215.857 102.191 223.456 100.666C231.054 99.142 238.047 95.445 243.586 90.0241C249.124 84.6032 252.97 77.6914 254.657 70.1273C256.344 62.5633 255.8 54.6722 253.09 47.4116L252.89 46.8757Z" fill="#2E2E2E"/>
<path fill-rule="evenodd" clip-rule="evenodd" d="M207.188 45.3377C209.446 43.0799 212.508 41.8115 215.701 41.8115C218.894 41.8115 221.956 43.0799 224.214 45.3377C226.472 47.5955 227.74 50.6577 227.74 53.8507C227.74 59.6169 228.973 63.1977 230.11 65.2813C230.68 66.3275 231.236 67.0138 231.622 67.4213C231.816 67.6255 231.968 67.7609 232.059 67.8371C232.105 67.8753 232.136 67.8987 232.149 67.9085C232.151 67.9101 232.153 67.9113 232.154 67.9122C232.77 68.3357 233.043 69.1104 232.826 69.8281C232.606 70.5535 231.938 71.0496 231.18 71.0496H200.222C199.464 71.0496 198.795 70.5535 198.576 69.8281C198.358 69.1104 198.631 68.3357 199.248 67.9122C199.249 67.9113 199.251 67.9101 199.253 67.9085C199.266 67.8987 199.297 67.8753 199.343 67.8371C199.434 67.7609 199.586 67.6255 199.779 67.4213C200.165 67.0138 200.721 66.3275 201.292 65.2813C202.428 63.1977 203.662 59.6169 203.662 53.8507C203.662 50.6577 204.93 47.5955 207.188 45.3377ZM199.265 67.9004C199.265 67.9003 199.266 67.9002 199.266 67.9001C199.266 67.9001 199.266 67.9001 199.266 67.9001L199.265 67.9004ZM203.918 67.6098H227.483C227.352 67.3954 227.221 67.1684 227.09 66.9285C225.647 64.2825 224.3 60.1237 224.3 53.8507C224.3 51.57 223.394 49.3827 221.782 47.77C220.169 46.1573 217.982 45.2513 215.701 45.2513C213.42 45.2513 211.233 46.1573 209.62 47.77C208.007 49.3827 207.101 51.57 207.101 53.8507C207.101 60.1237 205.755 64.2825 204.312 66.9285C204.181 67.1684 204.049 67.3954 203.918 67.6098Z" fill="#2E2E2E"/>
<path fill-rule="evenodd" clip-rule="evenodd" d="M211.862 74.7217C212.684 74.2451 213.736 74.5248 214.213 75.3464C214.364 75.6071 214.581 75.8234 214.842 75.9738C215.103 76.1242 215.399 76.2033 215.701 76.2033C216.002 76.2033 216.298 76.1242 216.559 75.9738C216.82 75.8234 217.037 75.6071 217.188 75.3464C217.665 74.5248 218.717 74.2451 219.539 74.7217C220.361 75.1983 220.64 76.2508 220.164 77.0724C219.71 77.8543 219.059 78.5033 218.276 78.9545C217.493 79.4056 216.605 79.6431 215.701 79.6431C214.797 79.6431 213.909 79.4056 213.125 78.9545C212.342 78.5033 211.691 77.8543 211.238 77.0724C210.761 76.2508 211.041 75.1983 211.862 74.7217Z" fill="#2E2E2E"/>
</svg>
