<svg xmlns="http://www.w3.org/2000/svg" viewBox="0 0 640 398.77"><polygon points="547.89 129.43 542.21 97.26 372.54 127.18 258.03 0 233.76 21.86 334.61 133.86 76.05 179.46 81.72 211.62 360.39 162.49 429.52 239.26 453.79 217.41 398.32 155.8 547.89 129.43"/><path d="M21.42,321.18H0v-16.21H64.13v16.21h-21.42v77.59H21.42v-77.59Z"/><path d="M91.2,304.97h21.29v93.8h-21.29v-93.8Z"/><path d="M144.69,304.97h19.23l21.56,38.59,21.56-38.59h19.23v93.8h-20.05v-60.01h-.27l-18.4,35.57h-4.12l-18.4-35.57h-.27v60.01h-20.05v-93.8Z"/><path d="M254.94,304.97h54.66v16.21h-33.37v21.83h31.04v16.2h-31.04v23.35h34.61v16.2h-55.89v-93.8Z"/><path d="M338.92,304.97h21.29v76.9h34.33v16.89h-55.62v-93.8Z"/><path d="M414.93,304.97h54.66v16.21h-33.37v21.83h31.04v16.2h-31.04v23.35h34.61v16.2h-55.89v-93.8Z"/><path d="M578.75,304.97h30.35c21.84,0,30.9,14.83,30.9,28.15,0,10.16-4.94,27.47-31.04,27.47h-8.93v38.18h-21.29v-93.8Zm27.47,39.41c9.75,0,12.5-4.67,12.5-11.54,0-5.77-2.61-11.67-11.81-11.67h-6.87v23.21h6.18Z"/><path d="M512.64,304.97l-24.44,93.8h20.6l4.53-19.5h21.15l4.39,19.5h20.6l-24.44-93.8h-22.4Zm3.71,59.05l7.42-34.06h.28l7.28,34.06h-14.97Z"/></svg>