<svg width="246" height="181" viewBox="0 0 246 181" fill="none" xmlns="http://www.w3.org/2000/svg">
<g clip-path="url(#clip0_182_4813)">
<path d="M2.99353 102.83L0.0429688 86.0545L242.58 43.2878L245.531 60.0629L2.99353 102.83Z" fill="black"/>
<path d="M17.7031 181H6.28324V148.746H-0.0146484V138.574H24.2463V148.739H17.7031V181Z" fill="black"/>
<path d="M41.372 181H29.9521V138.574H41.372V181Z" fill="black"/>
<path d="M91.6549 181H79.7156L78.8643 161.655L78.5108 153.937C78.381 155.421 78.2367 156.833 78.0708 158.18C77.9049 159.526 77.7029 160.829 77.472 162.096L73.8866 181H64.5805L61.5145 162.068C61.3341 160.967 61.0888 159.085 60.7786 156.406C60.7426 156 60.656 155.182 60.5334 153.93L60.2592 161.763L59.2348 181H47.0791L52.0063 138.574H66.218L68.5987 152.865C68.8007 154.038 68.981 155.313 69.1325 156.688C69.284 158.064 69.4283 159.555 69.5582 161.17C69.7962 158.476 70.1209 156.066 70.5465 153.944L73.4466 138.581H87.5501L91.6549 181Z" fill="black"/>
<path d="M97.3604 181V138.574H118.577V148.55H108.773V154.733H117.56V164.326H108.773V170.813H118.577V181H97.3604Z" fill="black"/>
<path d="M149.987 181H129.997V138.574H141.417V170.806H149.987V181Z" fill="black"/>
<path d="M155.694 181V138.574H176.911V148.55H167.107V154.733H175.894V164.326H167.107V170.813H176.911V181H155.694Z" fill="black"/>
<path d="M213.984 181H202.182L201.33 175.614H193.64L192.709 181H180.907L191.065 138.574H205.031L213.984 181ZM199.988 166.52L199.253 161.575C199.238 161.561 199.195 161.307 199.144 160.837C199.108 160.431 198.914 158.838 198.567 156.058C198.531 155.747 198.488 155.32 198.43 154.784C198.373 154.241 198.3 153.561 198.214 152.735L197.86 148.724C197.824 149.108 197.774 149.542 197.709 150.013C197.644 150.491 197.579 151.012 197.507 151.577C197.377 152.713 197.29 153.503 197.233 153.937C197.175 154.379 197.139 154.639 197.124 154.733L196.331 159.874L195.184 166.52H199.988Z" fill="black"/>
<path d="M229.394 181H217.974V138.574H229.033C234.544 138.574 238.635 139.703 241.297 141.955C244.435 144.612 246.008 148.304 246.008 153.025C246.008 158.172 244.334 162.01 240.994 164.536C238.714 166.238 235.439 167.092 231.168 167.092H229.386V181H229.394ZM229.394 157.564L229.913 157.593C231.298 157.593 232.402 157.166 233.224 156.319C234.047 155.465 234.458 154.299 234.458 152.815C234.458 151.352 234.054 150.158 233.253 149.245C232.452 148.312 231.428 147.841 230.187 147.841H229.394V157.564Z" fill="black"/>
<path d="M56.71 10.9469L69.7097 0L158.515 106.457L145.515 117.404L56.71 10.9469Z" fill="black"/>
</g>
<defs>
<clipPath id="clip0_182_4813">
<rect width="246" height="181" fill="white"/>
</clipPath>
</defs>
</svg>
